<?xml version="1.0" standalone="no"?>
<!DOCTYPE svg PUBLIC "-//W3C//DTD SVG 20010904//EN"
 "http://www.w3.org/TR/2001/REC-SVG-20010904/DTD/svg10.dtd">
<svg version="1.0" xmlns="http://www.w3.org/2000/svg"
 width="1024.000000pt" height="1536.000000pt" viewBox="0 0 1024.000000 1536.000000"
 preserveAspectRatio="xMidYMid meet">

<g transform="translate(0.000000,1536.000000) scale(0.100000,-0.100000)"
fill="#000000" stroke="none">
<path d="M5162 6270 c0 -14 2 -19 5 -12 2 6 2 18 0 25 -3 6 -5 1 -5 -13z"/>
<path d="M5164 5990 c0 -58 1 -81 3 -52 2 28 2 76 0 105 -2 28 -3 5 -3 -53z"/>
<path d="M5788 5993 c7 -3 16 -2 19 1 4 3 -2 6 -13 5 -11 0 -14 -3 -6 -6z"/>
<path d="M5620 5986 c0 -2 8 -10 18 -17 15 -13 16 -12 3 4 -13 16 -21 21 -21
13z"/>
<path d="M4584 5815 c0 -66 1 -92 3 -57 2 34 2 88 0 120 -2 31 -3 3 -3 -63z"/>
<path d="M4490 5803 c-3 -67 -1 -119 3 -114 4 4 6 59 5 122 l-3 114 -5 -122z"/>
<path d="M5631 5874 c0 -11 3 -14 6 -6 3 7 2 16 -1 19 -3 4 -6 -2 -5 -13z"/>
<path d="M5014 5848 l-19 -23 23 19 c21 18 27 26 19 26 -2 0 -12 -10 -23 -22z"/>
<path d="M6161 5773 c-10 -26 -10 -27 4 -9 8 11 15 23 15 28 0 15 -7 8 -19
-19z"/>
<path d="M5670 5765 c13 -14 26 -25 28 -25 3 0 -5 11 -18 25 -13 14 -26 25
-28 25 -3 0 5 -11 18 -25z"/>
<path d="M4972 5735 c0 -16 2 -22 5 -12 2 9 2 23 0 30 -3 6 -5 -1 -5 -18z"/>
<path d="M4096 5737 c3 -10 9 -15 12 -12 3 3 0 11 -7 18 -10 9 -11 8 -5 -6z"/>
<path d="M5051 5734 c0 -11 3 -14 6 -6 3 7 2 16 -1 19 -3 4 -6 -2 -5 -13z"/>
<path d="M6136 5725 c-9 -26 -7 -32 5 -12 6 10 9 21 6 23 -2 3 -7 -2 -11 -11z"/>
<path d="M5768 5723 c7 -3 16 -2 19 1 4 3 -2 6 -13 5 -11 0 -14 -3 -6 -6z"/>
<path d="M5236 5673 c-6 -14 -5 -15 5 -6 7 7 10 15 7 18 -3 3 -9 -2 -12 -12z"/>
<path d="M4439 5653 l-24 -28 28 24 c25 23 32 31 24 31 -2 0 -14 -12 -28 -27z"/>
<path d="M4640 5653 c0 -6 8 -17 18 -24 16 -13 16 -13 2 6 -8 11 -16 22 -17
24 -2 2 -3 0 -3 -6z"/>
<path d="M5068 5603 c7 -3 16 -2 19 1 4 3 -2 6 -13 5 -11 0 -14 -3 -6 -6z"/>
<path d="M6076 5585 c-9 -26 -7 -32 5 -12 6 10 9 21 6 23 -2 3 -7 -2 -11 -11z"/>
<path d="M4681 5544 c0 -11 3 -14 6 -6 3 7 2 16 -1 19 -3 4 -6 -2 -5 -13z"/>
<path d="M6166 5533 c-6 -14 -5 -15 5 -6 7 7 10 15 7 18 -3 3 -9 -2 -12 -12z"/>
<path d="M4400 5501 c0 -17 74 -91 91 -91 8 0 -1 9 -19 20 -18 11 -41 34 -52
52 -11 18 -20 27 -20 19z"/>
<path d="M4619 5433 c-13 -16 -12 -17 4 -4 16 13 21 21 13 21 -2 0 -10 -8 -17
-17z"/>
<path d="M4221 5404 c0 -11 3 -14 6 -6 3 7 2 16 -1 19 -3 4 -6 -2 -5 -13z"/>
<path d="M6121 5394 c0 -11 3 -14 6 -6 3 7 2 16 -1 19 -3 4 -6 -2 -5 -13z"/>
<path d="M6011 5374 c0 -11 3 -14 6 -6 3 7 2 16 -1 19 -3 4 -6 -2 -5 -13z"/>
<path d="M4232 5365 c0 -11 4 -31 8 -45 6 -20 8 -21 8 -5 0 11 -4 31 -8 45 -6
20 -8 21 -8 5z"/>
<path d="M6002 5330 c0 -14 2 -19 5 -12 2 6 2 18 0 25 -3 6 -5 1 -5 -13z"/>
<path d="M6101 5314 c0 -11 3 -14 6 -6 3 7 2 16 -1 19 -3 4 -6 -2 -5 -13z"/>
<path d="M5991 5284 c0 -11 3 -14 6 -6 3 7 2 16 -1 19 -3 4 -6 -2 -5 -13z"/>
<path d="M4252 5270 c0 -14 2 -19 5 -12 2 6 2 18 0 25 -3 6 -5 1 -5 -13z"/>
<path d="M6092 5270 c0 -14 2 -19 5 -12 2 6 2 18 0 25 -3 6 -5 1 -5 -13z"/>
<path d="M4152 5250 c0 -14 2 -19 5 -12 2 6 2 18 0 25 -3 6 -5 1 -5 -13z"/>
<path d="M5982 5225 c0 -16 2 -22 5 -12 2 9 2 23 0 30 -3 6 -5 -1 -5 -18z"/>
<path d="M6082 5220 c0 -14 2 -19 5 -12 2 6 2 18 0 25 -3 6 -5 1 -5 -13z"/>
<path d="M4263 5190 c0 -25 2 -35 4 -22 2 12 2 32 0 45 -2 12 -4 2 -4 -23z"/>
<path d="M4162 5190 c0 -14 2 -19 5 -12 2 6 2 18 0 25 -3 6 -5 1 -5 -13z"/>
<path d="M5974 5035 c0 -82 2 -115 3 -72 2 43 2 110 0 150 -1 40 -3 5 -3 -78z"/>
<path d="M6074 5020 c0 -80 2 -112 3 -72 2 39 2 105 0 145 -1 39 -3 7 -3 -73z"/>
<path d="M4174 5015 c0 -77 2 -107 3 -67 2 40 2 103 0 140 -2 37 -3 4 -3 -73z"/>
<path d="M4274 5000 c0 -69 1 -97 3 -62 2 34 2 90 0 125 -2 34 -3 6 -3 -63z"/>
<path d="M5961 4868 c0 -9 -4 -25 -7 -35 -5 -17 -5 -17 6 0 6 10 9 25 7 35 -4
15 -5 15 -6 0z"/>
<path d="M4182 4850 c0 -14 2 -19 5 -12 2 6 2 18 0 25 -3 6 -5 1 -5 -13z"/>
<path d="M6056 4839 c-8 -42 0 -50 9 -9 4 17 5 34 2 36 -2 3 -7 -10 -11 -27z"/>
<path d="M4280 4852 c0 -25 39 -89 80 -129 76 -77 45 -74 775 -71 602 3 653 4
686 21 40 20 95 70 111 101 6 12 -6 2 -26 -21 -20 -23 -59 -53 -88 -67 l-52
-26 -643 0 c-530 0 -650 2 -677 14 -52 22 -117 86 -142 141 -13 28 -24 44 -24
37z"/>
<path d="M4191 4817 c-2 -19 33 -85 71 -135 37 -48 126 -112 153 -111 6 0 -8
10 -31 22 -22 12 -49 29 -60 37 -33 25 -90 102 -112 150 -11 25 -21 41 -21 37z"/>
<path d="M6027 4755 c-24 -51 -94 -123 -152 -156 -27 -16 -45 -29 -39 -29 6 0
38 17 71 39 41 27 72 57 101 101 37 55 49 80 39 80 -2 0 -11 -16 -20 -35z"/>
<path d="M4448 4558 c9 -4 314 -7 677 -7 363 0 668 3 677 7 10 4 -295 7 -677
7 -382 0 -687 -3 -677 -7z"/>
<path d="M4366 4401 c-36 -39 -28 -150 11 -166 21 -8 1464 -8 1485 0 40 16 51
115 17 159 l-20 26 -738 0 c-709 0 -739 -1 -755 -19z m1508 -13 c9 -12 16 -41
16 -63 0 -22 -7 -51 -16 -63 l-15 -22 -738 0 c-836 0 -766 -8 -766 85 0 93
-70 85 766 85 l738 0 15 -22z"/>
<path d="M4370 4082 c-34 -28 -40 -117 -10 -154 l21 -28 739 0 739 0 21 28
c18 22 21 36 18 81 -9 99 57 91 -778 91 -691 0 -729 -1 -750 -18z m1322 -2
l178 0 6 -27 c15 -57 10 -114 -10 -129 -17 -12 -134 -14 -742 -14 -826 0 -764
-7 -766 87 -1 63 12 81 60 85 20 2 276 2 567 1 292 -2 610 -3 707 -3z"/>
<path d="M5670 4050 c0 -5 5 -10 11 -10 5 0 7 5 4 10 -3 6 -8 10 -11 10 -2 0
-4 -4 -4 -10z"/>
<path d="M4770 4039 c0 -5 5 -7 10 -4 6 3 10 8 10 11 0 2 -4 4 -10 4 -5 0 -10
-5 -10 -11z"/>
<path d="M5723 4035 c0 -8 4 -12 9 -9 5 3 6 10 3 15 -9 13 -12 11 -12 -6z"/>
<path d="M5670 4018 c0 -4 4 -8 9 -8 6 0 12 4 15 8 3 5 -1 9 -9 9 -8 0 -15 -4
-15 -9z"/>
<path d="M5750 4020 c0 -5 5 -10 11 -10 5 0 7 5 4 10 -3 6 -8 10 -11 10 -2 0
-4 -4 -4 -10z"/>
<path d="M5595 4010 c3 -5 8 -10 11 -10 2 0 4 5 4 10 0 6 -5 10 -11 10 -5 0
-7 -4 -4 -10z"/>
<path d="M5395 4001 c-6 -11 13 -26 22 -17 4 3 1 6 -6 6 -7 0 -9 5 -6 10 3 6
4 10 1 10 -3 0 -7 -4 -11 -9z"/>
<path d="M5703 3996 c1 -11 9 -21 17 -23 10 -3 11 -2 4 4 -6 4 -14 15 -17 23
-5 11 -6 9 -4 -4z"/>
<path d="M5560 3995 c0 -5 5 -17 10 -25 5 -8 10 -10 10 -5 0 6 -5 17 -10 25
-5 8 -10 11 -10 5z"/>
<path d="M5757 3979 c7 -7 15 -10 18 -7 3 3 -2 9 -12 12 -14 6 -15 5 -6 -5z"/>
<path d="M5820 3982 c0 -5 7 -9 15 -9 8 0 12 4 9 9 -3 4 -9 8 -15 8 -5 0 -9
-4 -9 -8z"/>
<path d="M5861 3974 c0 -11 3 -14 6 -6 3 7 2 16 -1 19 -3 4 -6 -2 -5 -13z"/>
<path d="M5535 3970 c3 -5 8 -10 11 -10 2 0 4 5 4 10 0 6 -5 10 -11 10 -5 0
-7 -4 -4 -10z"/>
<path d="M5620 3974 c0 -6 7 -19 15 -30 8 -10 14 -14 14 -9 0 6 -6 19 -14 29
-8 11 -15 15 -15 10z"/>
<path d="M4692 3942 c-11 -25 -11 -25 4 -10 9 9 15 21 13 27 -2 6 -10 -2 -17
-17z"/>
<path d="M5146 3962 c-3 -5 1 -9 9 -9 8 0 15 4 15 9 0 4 -4 8 -9 8 -6 0 -12
-4 -15 -8z"/>
<path d="M5190 3956 c0 -8 4 -17 9 -20 5 -4 7 3 4 14 -6 23 -13 26 -13 6z"/>
<path d="M5456 3961 c-4 -6 -2 -11 3 -11 6 0 11 -8 12 -17 0 -10 3 -13 5 -6 8
18 -11 49 -20 34z"/>
<path d="M5661 3948 c1 -17 3 -18 6 -6 3 11 10 15 20 11 11 -4 14 -2 9 5 -13
21 -36 13 -35 -10z"/>
<path d="M4660 3949 c0 -5 5 -7 10 -4 6 3 10 8 10 11 0 2 -4 4 -10 4 -5 0 -10
-5 -10 -11z"/>
<path d="M5797 3953 c-10 -9 -9 -33 1 -33 4 0 8 9 8 20 0 23 0 22 -9 13z"/>
<path d="M5230 3941 c0 -6 4 -13 10 -16 6 -3 7 1 4 9 -7 18 -14 21 -14 7z"/>
<path d="M5316 3933 c-6 -14 -5 -15 5 -6 7 7 10 15 7 18 -3 3 -9 -2 -12 -12z"/>
<path d="M5716 3935 c-3 -9 0 -15 9 -15 16 0 20 16 6 24 -5 3 -11 -1 -15 -9z"/>
<path d="M5840 3940 c-8 -5 -12 -12 -9 -15 4 -3 12 1 19 10 14 17 11 19 -10 5z"/>
<path d="M4575 3930 c-3 -5 -1 -10 4 -10 6 0 11 5 11 10 0 6 -2 10 -4 10 -3 0
-8 -4 -11 -10z"/>
<path d="M4837 3929 c7 -7 15 -10 18 -7 3 3 -2 9 -12 12 -14 6 -15 5 -6 -5z"/>
<path d="M5400 3931 c0 -5 9 -7 20 -4 11 3 20 7 20 9 0 2 -9 4 -20 4 -11 0
-20 -4 -20 -9z"/>
<path d="M5508 3933 c7 -3 16 -2 19 1 4 3 -2 6 -13 5 -11 0 -14 -3 -6 -6z"/>
<path d="M5755 3930 c-3 -5 -1 -10 4 -10 6 0 11 5 11 10 0 6 -2 10 -4 10 -3 0
-8 -4 -11 -10z"/>
<path d="M4778 3923 c7 -3 16 -2 19 1 4 3 -2 6 -13 5 -11 0 -14 -3 -6 -6z"/>
<path d="M4546 3764 c-9 -8 -16 -22 -16 -31 0 -57 136 -184 263 -247 129 -63
199 -80 337 -80 140 0 211 18 334 82 101 53 221 156 211 181 -3 8 -3 12 1 8
13 -12 34 15 34 44 0 61 23 59 -590 59 -494 0 -560 -2 -574 -16z m94 -19 c1
-18 1 -19 11 -2 12 21 59 23 59 2 0 -8 5 -15 11 -15 5 0 7 5 3 11 -9 16 15 28
46 24 56 -10 130 -12 135 -5 2 4 16 5 30 3 13 -3 22 -9 19 -14 -3 -5 -10 -7
-15 -3 -13 7 -40 -27 -34 -43 2 -6 -3 -14 -11 -17 -21 -8 -17 -32 8 -56 12
-11 17 -20 10 -20 -6 0 -18 10 -26 22 -14 19 -16 19 -22 5 -3 -9 -11 -17 -16
-17 -6 0 -3 11 6 25 10 16 12 25 5 25 -6 0 -9 9 -6 20 3 11 1 20 -4 20 -5 0
-9 -5 -9 -12 0 -11 -14 -2 -16 10 -3 23 -18 40 -30 35 -8 -3 -12 -9 -9 -13 3
-5 -2 -16 -11 -24 -8 -9 -11 -16 -6 -16 5 0 17 10 25 23 14 19 16 20 16 4 1
-21 -23 -49 -33 -40 -3 4 -6 2 -6 -4 0 -12 23 -23 46 -23 9 0 12 5 9 10 -4 6
-11 8 -16 5 -5 -3 -6 1 -3 9 8 22 21 20 34 -4 9 -17 7 -22 -17 -31 -15 -6 -37
-18 -48 -27 -11 -9 -14 -10 -7 -2 6 8 12 20 12 27 0 7 -6 12 -12 11 -7 -2 -12
3 -10 10 1 6 -3 12 -9 12 -5 0 -7 5 -4 10 8 13 -11 13 -36 0 -15 -8 -19 -7
-19 5 0 8 -4 15 -8 15 -5 0 -9 -7 -9 -15 0 -8 4 -16 9 -16 19 -3 24 -5 35 -12
9 -6 11 -3 6 10 -4 12 -3 15 4 8 6 -5 14 -20 18 -32 5 -18 2 -23 -10 -23 -9 0
-19 9 -22 19 -3 11 -11 17 -18 15 -15 -6 -47 24 -39 37 3 6 -6 21 -20 34 -16
14 -28 20 -32 13 -4 -6 -9 -5 -15 3 -11 18 -21 6 -13 -15 5 -13 10 -14 20 -5
10 8 18 7 31 -6 24 -25 24 -41 -1 -42 -11 -1 -15 1 -8 4 6 3 12 8 12 13 0 11
-39 0 -47 -13 -3 -5 -2 -7 4 -4 5 3 10 0 10 -8 0 -20 -17 -5 -41 36 -11 19
-14 29 -6 24 10 -6 12 -4 6 10 -9 23 5 32 49 31 28 -1 35 -5 35 -21z m400 5
c0 -6 -4 -10 -9 -10 -5 0 -7 -15 -4 -32 4 -33 4 -33 -12 -10 -9 12 -13 27 -10
32 3 6 1 10 -4 10 -14 0 -14 -47 -1 -55 6 -4 8 -11 4 -16 -3 -5 -16 5 -28 23
-18 26 -20 35 -9 41 7 5 11 12 9 16 -3 4 10 8 29 9 19 1 35 -3 35 -8z m520 -6
c0 -8 5 -14 12 -14 6 0 9 -2 6 -5 -3 -3 -18 1 -34 9 -25 14 -30 14 -46 -1 -11
-10 -16 -24 -12 -38 3 -13 0 -26 -6 -30 -9 -5 -10 -1 -6 13 7 21 -18 40 -29
22 -4 -6 0 -10 7 -11 10 0 10 -2 1 -6 -9 -3 -10 -10 -3 -24 6 -10 7 -19 3 -19
-4 0 -13 11 -19 24 -13 29 -1 56 26 56 20 0 36 17 26 27 -3 3 -12 1 -19 -5 -8
-7 -17 -9 -20 -5 -4 3 -7 1 -7 -5 0 -7 -7 -12 -15 -12 -8 0 -15 -7 -15 -15 0
-8 -6 -15 -12 -15 -9 0 -8 -4 2 -10 9 -6 10 -10 3 -10 -17 0 -25 17 -12 25 7
5 4 13 -8 24 -14 14 -22 16 -38 7 -11 -6 -22 -14 -25 -17 -3 -3 -13 -8 -23
-12 -9 -4 -16 -10 -15 -14 1 -4 -3 -18 -10 -29 -6 -12 -8 -24 -5 -28 3 -3 2
-6 -4 -6 -18 0 -23 12 -12 31 12 23 7 24 -31 4 l-29 -15 5 50 5 50 -47 0 c-26
0 -44 -3 -40 -7 4 -5 11 -8 14 -8 23 -2 52 -29 52 -49 0 -19 -5 -24 -25 -22
-15 0 -25 7 -25 17 0 24 -26 54 -34 40 -4 -6 0 -14 8 -17 9 -3 16 -13 16 -22
0 -13 -3 -12 -18 4 -18 20 -52 70 -52 77 0 2 115 4 255 4 209 0 255 -2 255
-13z m137 -16 c3 -39 -13 -44 -26 -8 -5 17 -15 30 -20 30 -7 0 -7 -8 -1 -25 8
-21 7 -25 -10 -25 -17 0 -19 5 -14 25 5 19 2 25 -11 25 -14 0 -16 -6 -12 -30
5 -22 3 -28 -7 -24 -8 3 -12 14 -9 25 3 10 0 19 -6 19 -6 0 -11 4 -11 8 0 5
28 8 62 8 61 -1 63 -2 65 -28z m-757 -9 c0 -6 7 -17 15 -26 9 -8 14 -18 11
-21 -6 -5 -45 38 -46 51 0 4 5 7 10 7 6 0 10 -5 10 -11z m122 -27 c-6 -2 -12
-10 -12 -18 0 -17 30 -19 30 -1 0 6 5 4 11 -6 6 -10 8 -21 5 -24 -3 -4 -6 0
-6 7 0 9 -6 8 -20 -5 -22 -20 -21 -21 -25 47 -2 33 -1 35 14 21 12 -12 13 -17
3 -21z m128 22 c0 -8 -4 -12 -10 -9 -5 3 -10 10 -10 16 0 5 5 9 10 9 6 0 10
-7 10 -16z m350 12 c0 -2 -9 -6 -20 -9 -11 -3 -18 -1 -14 4 5 9 34 13 34 5z
m-178 -27 c-12 -5 -22 -13 -22 -18 0 -6 -8 -7 -17 -4 -14 5 -14 8 -3 11 8 3
21 11 28 19 8 7 19 10 25 6 6 -4 2 -9 -11 -14z m-405 -45 c7 3 13 1 13 -4 0
-6 -7 -10 -15 -10 -8 0 -15 -5 -15 -11 0 -5 -5 -7 -11 -3 -8 4 -7 9 2 15 8 5
9 9 4 9 -6 0 -11 10 -12 23 l-1 22 11 -23 c6 -13 16 -21 24 -18z m703 32 c0
-2 -7 -6 -15 -10 -8 -3 -15 -1 -15 4 0 6 7 10 15 10 8 0 15 -2 15 -4z m-105
-16 c-3 -5 -11 -10 -16 -10 -6 0 -7 5 -4 10 3 6 11 10 16 10 6 0 7 -4 4 -10z
m-909 -27 c-3 -7 -2 -12 2 -12 4 1 18 0 32 -1 21 -2 20 -3 -10 -11 -28 -6 -38
-5 -47 8 -18 23 -16 29 7 29 13 0 19 -5 16 -13z m384 7 c0 -5 -5 -10 -11 -10
-5 0 -7 5 -4 10 3 6 8 10 11 10 2 0 4 -4 4 -10z m319 -6 c4 3 8 -1 8 -9 0 -18
-13 -20 -21 -2 -5 9 -7 9 -12 -1 -3 -6 -10 -10 -15 -6 -5 3 -9 0 -9 -6 0 -6
-5 -8 -11 -4 -6 4 1 13 18 24 15 9 30 13 31 8 2 -4 7 -6 11 -4z m278 -16 c-3
-8 -6 -5 -6 6 -1 11 2 17 5 13 3 -3 4 -12 1 -19z m-619 -13 c-3 -3 -9 2 -12
12 -6 14 -5 15 5 6 7 -7 10 -15 7 -18z m172 3 c0 -6 -6 -5 -15 2 -8 7 -15 14
-15 16 0 2 7 1 15 -2 8 -4 15 -11 15 -16z m-346 -4 c4 -10 1 -14 -6 -12 -15 5
-23 28 -10 28 5 0 13 -7 16 -16z m146 -4 c0 -5 -2 -10 -4 -10 -3 0 -8 5 -11
10 -3 6 -1 10 4 10 6 0 11 -4 11 -10z m110 -5 c0 -8 -4 -15 -10 -15 -5 0 -7 7
-4 15 4 8 8 15 10 15 2 0 4 -7 4 -15z m80 -22 c0 -9 -6 -7 -20 4 -11 10 -20
21 -20 25 0 5 9 3 20 -4 11 -7 20 -18 20 -25z m-215 17 c3 -5 -1 -10 -9 -10
-9 0 -16 5 -16 10 0 6 4 10 9 10 6 0 13 -4 16 -10z m85 -10 c6 -11 8 -20 6
-20 -3 0 -10 9 -16 20 -6 11 -8 20 -6 20 3 0 10 -9 16 -20z m235 11 c3 -5 1
-12 -5 -16 -5 -3 -10 1 -10 9 0 18 6 21 15 7z m266 -8 c13 -16 12 -17 -3 -4
-10 7 -18 15 -18 17 0 8 8 3 21 -13z m-621 2 c0 -2 -7 -8 -15 -15 -12 -10 -15
-10 -15 2 0 8 7 15 15 15 8 0 15 -1 15 -2z m-163 -11 c-3 -3 -12 -4 -19 -1 -8
3 -5 6 6 6 11 1 17 -2 13 -5z m109 -10 c18 -14 18 -14 -6 -3 -31 14 -36 19
-24 19 6 0 19 -7 30 -16z m-148 -30 c-4 -3 -12 5 -18 18 -12 22 -12 22 6 6 10
-10 15 -20 12 -24z m235 21 c4 -8 3 -16 -1 -19 -4 -3 -9 4 -9 15 -2 23 3 25
10 4z m458 -2 c13 -16 12 -17 -3 -4 -17 13 -22 21 -14 21 2 0 10 -8 17 -17z
m-661 3 c0 -3 -4 -8 -10 -11 -5 -3 -10 -1 -10 4 0 6 5 11 10 11 6 0 10 -2 10
-4z m580 -10 c0 -3 -4 -8 -10 -11 -5 -3 -10 -1 -10 4 0 6 5 11 10 11 6 0 10
-2 10 -4z m120 -6 c0 -5 -5 -10 -11 -10 -5 0 -7 5 -4 10 3 6 8 10 11 10 2 0 4
-4 4 -10z m-425 -10 c3 -5 1 -10 -4 -10 -6 0 -11 5 -11 10 0 6 2 10 4 10 3 0
8 -4 11 -10z m-108 -6 c-3 -3 -12 -4 -19 -1 -8 3 -5 6 6 6 11 1 17 -2 13 -5z
m573 -19 c0 -2 -6 -5 -13 -8 -8 -3 -14 1 -14 8 0 7 6 11 14 8 7 -3 13 -6 13
-8z m-443 -21 c-3 -3 -12 -4 -19 -1 -8 3 -5 6 6 6 11 1 17 -2 13 -5z m-202
-14 c3 -6 -1 -7 -9 -4 -18 7 -21 14 -7 14 6 0 13 -4 16 -10z m75 -20 c0 -5 -5
-10 -11 -10 -5 0 -7 5 -4 10 3 6 8 10 11 10 2 0 4 -4 4 -10z"/>
<path d="M4666 3732 c-3 -6 -1 -14 5 -17 14 -9 20 -2 10 14 -6 8 -11 9 -15 3z"/>
<path d="M4733 3726 c-26 -12 -32 -31 -7 -22 9 3 19 6 24 6 4 0 10 7 14 15 6
17 1 17 -31 1z"/>
<path d="M4870 3694 c0 -8 5 -12 10 -9 6 3 10 10 10 16 0 5 -4 9 -10 9 -5 0
-10 -7 -10 -16z"/>
<path d="M5077 3739 c7 -7 15 -10 18 -7 3 3 -2 9 -12 12 -14 6 -15 5 -6 -5z"/>
<path d="M5240 3738 c0 -4 -6 -5 -14 -2 -10 4 -15 -5 -18 -29 -4 -34 -3 -34
34 -33 20 0 35 3 32 5 -7 8 39 51 54 51 22 0 5 13 -18 15 -14 1 -22 -6 -26
-21 -7 -26 -35 -36 -52 -18 -17 19 -15 22 12 19 14 -2 27 2 29 9 3 6 -4 12
-14 12 -11 0 -19 -4 -19 -8z"/>
<path d="M5391 3741 c-10 -6 -9 -10 3 -14 8 -3 18 -2 21 3 8 13 -9 20 -24 11z"/>
<path d="M5130 3712 c0 -15 27 -45 32 -36 3 5 -3 17 -14 27 -10 9 -18 13 -18
9z"/>
</g>
</svg>
