<?xml version="1.0" encoding="UTF-8"?>
<svg version="1.1" xmlns="http://www.w3.org/2000/svg" width="248" height="124">
<path d="M0 0 C81.84 0 163.68 0 248 0 C248 40.92 248 81.84 248 124 C166.16 124 84.32 124 0 124 C0 83.08 0 42.16 0 0 Z " fill="#F6F4F3" transform="translate(0,0)"/>
<path d="M0 0 C13.53 0 27.06 0 41 0 C41 32.67 41 65.34 41 99 C27.47 99 13.94 99 0 99 C0 95.04 0 91.08 0 87 C1.65 87 3.3 87 5 87 C4.93276457 79.33164001 4.84286566 71.66378042 4.73754883 63.99584961 C4.70438874 61.38979042 4.67632935 58.78366096 4.65356445 56.17749023 C4.61985511 52.4214089 4.56752888 48.66596645 4.51171875 44.91015625 C4.50532883 43.75354996 4.4989389 42.59694366 4.49235535 41.4052887 C4.4999289 31.01120895 4.4999289 31.01120895 0 22 C-0.08700342 20.36527118 -0.10701063 18.72685945 -0.09765625 17.08984375 C-0.09515869 16.199021 -0.09266113 15.30819824 -0.09008789 14.39038086 C-0.08098389 13.25093018 -0.07187988 12.11147949 -0.0625 10.9375 C-0.041875 7.328125 -0.02125 3.71875 0 0 Z " fill="#E25A32" transform="translate(184,11)"/>
<path d="M0 0 C17.16 0 34.32 0 52 0 C52 5.61 52 11.22 52 17 C46 15 46 15 44 14 C33.98242084 13.40398843 25.01504664 12.98315428 16.6875 19.375 C9.94400202 25.96167244 8.78538835 32.95579204 8.62094116 42.06539917 C8.60938995 43.23748932 8.59783875 44.40957947 8.5859375 45.6171875 C8.56657135 46.82948029 8.5472052 48.04177307 8.5272522 49.290802 C8.46760685 53.15213039 8.42113055 57.01348883 8.375 60.875 C8.33680644 63.49740863 8.29775391 66.11980491 8.2578125 68.7421875 C8.16191739 75.16135762 8.07783025 81.58058646 8 88 C15.26 88 22.52 88 30 88 C30 82.06 30 76.12 30 70 C31.98 70 33.96 70 36 70 C36 63.73 36 57.46 36 51 C34.02 51 32.04 51 30 51 C30 46.05 30 41.1 30 36 C32.76250036 34.61874982 34.94731099 34.80920694 38 35 C40 37 40 37 40.24050903 39.13870239 C40.2338472 40.4644075 40.2338472 40.4644075 40.22705078 41.81689453 C40.22689972 42.81778107 40.22674866 43.8186676 40.22659302 44.84988403 C40.21627045 45.93325043 40.20594788 47.01661682 40.1953125 48.1328125 C40.1924826 49.23978485 40.18965271 50.3467572 40.18673706 51.48727417 C40.17551519 55.03329137 40.15040691 58.57905875 40.125 62.125 C40.1149728 64.52473594 40.1058465 66.92447583 40.09765625 69.32421875 C40.07556928 75.21624253 40.0410257 81.10807887 40 87 C43.96 87 47.92 87 52 87 C52 91.29 52 95.58 52 100 C34.84 100 17.68 100 0 100 C0 67 0 34 0 0 Z " fill="#E45E36" transform="translate(128,11)"/>
<path d="M0 0 C7.26 0 14.52 0 22 0 C22 24.09 22 48.18 22 73 C14.74 73 7.48 73 0 73 C0 48.91 0 24.82 0 0 Z " fill="#FCF7F4" transform="translate(197,26)"/>
<path d="M0 0 C2.97 0 5.94 0 9 0 C9 32.67 9 65.34 9 99 C6.03 99 3.06 99 0 99 C0 66.33 0 33.66 0 0 Z " fill="#E25C34" transform="translate(229,11)"/>
<path d="M0 0 C3.26175495 2.19978822 4.77541984 3.89413631 5.56640625 7.7890625 C5.80856229 11.94178104 5.90205761 15.44581795 3.7734375 19.11328125 C0.59415156 22.26996563 -2.5664589 23.45469488 -7 23.875 C-11.12830797 23.60356691 -13.22202668 22.49485564 -16.125 19.5625 C-18.91452999 15.81883149 -20.00421586 12.78395147 -19.6328125 8.1171875 C-18.52817581 4.42142769 -16.13710809 2.13720259 -13 0 C-8.52745503 -1.49084832 -4.47254497 -1.49084832 0 0 Z " fill="#475C94" transform="translate(49,77)"/>
<path d="M0 0 C7.92 0 15.84 0 24 0 C24.33 1.32 24.66 2.64 25 4 C25.66 4 26.32 4 27 4 C27.33 2.68 27.66 1.36 28 0 C30.31 0 32.62 0 35 0 C34.3566152 1.313702 33.71021785 2.62592898 33.0625 3.9375 C32.70285156 4.66839844 32.34320313 5.39929687 31.97265625 6.15234375 C31 8 31 8 30 9 C29.76472227 11.34987262 29.58613583 13.70556039 29.4375 16.0625 C29.35371094 17.35285156 29.26992187 18.64320312 29.18359375 19.97265625 C29.09271484 21.47119141 29.09271484 21.47119141 29 23 C26.69 23 24.38 23 22 23 C21.96261719 21.96359375 21.92523438 20.9271875 21.88671875 19.859375 C21.82104212 18.48954816 21.75459536 17.11975809 21.6875 15.75 C21.66494141 15.06808594 21.64238281 14.38617188 21.61914062 13.68359375 C21.39833396 9.54848704 20.90407 7.02085566 18 4 C17.67 4.66 17.34 5.32 17 6 C15.35 6 13.7 6 12 6 C12 11.61 12 17.22 12 23 C9.69 23 7.38 23 5 23 C5 17.39 5 11.78 5 6 C3.35 6 1.7 6 0 6 C0 4.02 0 2.04 0 0 Z " fill="#3E548E" transform="translate(51,36)"/>
<path d="M0 0 C2.375 -0.125 2.375 -0.125 5 0 C7 2 7 2 7.25 4.5 C7 7 7 7 5 9 C2.4375 9.1875 2.4375 9.1875 0 9 C-0.495 8.505 -0.495 8.505 -1 8 C-2.39097823 7.89249229 -3.78730842 7.85320332 -5.18238831 7.84178162 C-6.08407745 7.8319928 -6.9857666 7.82220398 -7.91477966 7.81211853 C-8.91171341 7.80636307 -9.90864716 7.8006076 -10.93579102 7.79467773 C-12.50145813 7.77982834 -12.50145813 7.77982834 -14.09875488 7.76467896 C-17.56711518 7.73295746 -21.03548921 7.70826459 -24.50390625 7.68359375 C-26.90144721 7.66303341 -29.29898448 7.6420372 -31.69651794 7.62062073 C-38.02091484 7.56530502 -44.34534495 7.51593777 -50.6697998 7.46777344 C-57.1177874 7.41762759 -63.56572648 7.36190551 -70.01367188 7.30664062 C-82.67573957 7.19894294 -95.33784863 7.09733474 -108 7 C-108 6.01 -108 5.02 -108 4 C-73.02 4 -38.04 4 -2 4 C-1.34 2.68 -0.68 1.36 0 0 Z " fill="#F7B54C" transform="translate(118,62)"/>
<path d="M0 0 C9.86328125 -0.390625 9.86328125 -0.390625 13 0 C15.29034509 2.23402513 15.94788497 3.30513297 16.1875 6.5 C16.0946875 7.7375 16.0946875 7.7375 16 9 C16 10.32 16 11.64 16 13 C16.33 13.33 16.66 13.66 17 14 C17.3125 17.375 17.3125 17.375 17 21 C14.6284762 23.54547421 13.25438338 23.97695803 9.765625 24.29296875 C8.60546875 24.25816406 7.4453125 24.22335938 6.25 24.1875 C4.1875 24.125625 2.125 24.06375 0 24 C0 16.08 0 8.16 0 0 Z " fill="#364D8A" transform="translate(11,76)"/>
<path d="M0 0 C2.536875 -0.103125 5.07375 -0.20625 7.6875 -0.3125 C8.47729248 -0.35802002 9.26708496 -0.40354004 10.08081055 -0.45043945 C14.2568263 -0.5322807 15.59711662 -0.33476043 18.95703125 2.45703125 C19.63121094 3.29621094 20.30539063 4.13539062 21 5 C21.33 5.33 21.66 5.66 22 6 C22.66831508 9.94221303 22.72791229 13.5200012 20.94140625 17.15234375 C18.85840429 19.91274472 17.2949812 21.74471697 13.8203125 22.4296875 C11.625 22.4375 11.625 22.4375 8 22 C8 20.02 8 18.04 8 16 C9.65 15.34 11.3 14.68 13 14 C13 12.02 13 10.04 13 8 C10.69 7.34 8.38 6.68 6 6 C6 11.28 6 16.56 6 22 C4.02 22 2.04 22 0 22 C0 14.74 0 7.48 0 0 Z " fill="#344C8A" transform="translate(58,77)"/>
<path d="M0 0 C2.1027832 1.22875977 2.1027832 1.22875977 4 3 C4.45410156 5.17651367 4.45410156 5.17651367 4.390625 7.66796875 C4.37128906 9.00698242 4.37128906 9.00698242 4.3515625 10.37304688 C4.31804687 11.30181641 4.28453125 12.23058594 4.25 13.1875 C4.23195313 14.12787109 4.21390625 15.06824219 4.1953125 16.03710938 C4.1481655 18.35909889 4.08238231 20.6790369 4 23 C1.69 23 -0.62 23 -3 23 C-3 17.39 -3 11.78 -3 6 C-3.99 6 -4.98 6 -6 6 C-5.91621094 6.72445312 -5.83242187 7.44890625 -5.74609375 8.1953125 C-5.20472195 13.3349182 -4.76278202 17.91365942 -6 23 C-8.64 23 -11.28 23 -14 23 C-14.08103404 20.08277452 -14.14051081 17.16780484 -14.1875 14.25 C-14.21263672 13.425 -14.23777344 12.6 -14.26367188 11.75 C-14.33756769 5.64127904 -14.33756769 5.64127904 -12.67578125 2.484375 C-9.19439641 -0.59936915 -4.43689637 -0.71535373 0 0 Z " fill="#425790" transform="translate(101,36)"/>
<path d="M0 0 C2.22167969 1.22583008 2.22167969 1.22583008 4 3 C4.45410156 5.26831055 4.45410156 5.26831055 4.390625 7.88671875 C4.37128906 9.2934082 4.37128906 9.2934082 4.3515625 10.72851562 C4.31804688 11.70498047 4.28453125 12.68144531 4.25 13.6875 C4.23195313 14.67556641 4.21390625 15.66363281 4.1953125 16.68164062 C4.14815447 19.12206842 4.08236042 21.56054769 4 24 C2.02 24 0.04 24 -2 24 C-2 18.39 -2 12.78 -2 7 C-2.99 7 -3.98 7 -5 7 C-4.91621094 7.72445312 -4.83242188 8.44890625 -4.74609375 9.1953125 C-4.20472195 14.3349182 -3.76278202 18.91365942 -5 24 C-7.64 24 -10.28 24 -13 24 C-13.13530844 20.93601549 -13.2342407 17.87802874 -13.3125 14.8125 C-13.35439453 13.94818359 -13.39628906 13.08386719 -13.43945312 12.19335938 C-13.5257571 7.68829197 -13.47694387 5.64880813 -10.734375 1.91796875 C-6.64201098 -0.9525323 -4.90549962 -0.62292059 0 0 Z " fill="#344D8C" transform="translate(44,35)"/>
<path d="M0 0 C-0.99 0.66 -1.98 1.32 -3 2 C-2.01 2.99 -1.02 3.98 0 5 C-0.969375 5.309375 -1.93875 5.61875 -2.9375 5.9375 C-5.84065792 6.69523342 -5.84065792 6.69523342 -7 8 C-7.16666667 11 -7.16666667 11 -7 14 C-5.9110339 15.31372255 -5.9110339 15.31372255 -3.25 15.125 C-0.3659672 15.01407566 2.19859453 14.65915423 5 14 C4.01 15.485 4.01 15.485 3 17 C2.9603287 18.66619446 2.95615553 20.33391013 3 22 C1.37339402 23.62660598 -0.38023192 23.40312825 -2.625 23.5625 C-5.82721161 23.52569297 -7.53147765 23.3101486 -10.21875 21.53125 C-13.49489009 18.14769549 -15.44909362 15.13158571 -15.8125 10.375 C-15.43916186 6.23238259 -14.05870859 3.73995496 -10.93359375 1.01953125 C-7.41969538 -0.83325153 -3.85036862 -0.46204423 0 0 Z " fill="#40558F" transform="translate(45,77)"/>
<path d="M0 0 C1 1 1 1 1.0625 4.0625 C1.041875 5.031875 1.02125 6.00125 1 7 C0.01 7 -0.98 7 -2 7 C-1.67 7.680625 -1.34 8.36125 -1 9.0625 C0.2304273 12.6768802 0.47466191 15.2027047 0 19 C-2.0625 21.9375 -2.0625 21.9375 -5 24 C-8.8125 24.3125 -8.8125 24.3125 -12 24 C-12 21.69 -12 19.38 -12 17 C-10.68 17 -9.36 17 -8 17 C-8.33 16.34 -8.66 15.68 -9 15 C-10.34328544 10.97014368 -10.40531328 8.25578945 -10 4 C-7.27399778 -0.19384957 -4.83759822 -0.53751091 0 0 Z " fill="#435890" transform="translate(28,35)"/>
<path d="M0 0 C1 1 1 1 1.12025452 3.05641174 C1.1169236 4.41209511 1.1169236 4.41209511 1.11352539 5.79516602 C1.11344986 6.81614883 1.11337433 7.83713165 1.11329651 8.88905334 C1.10813522 9.9994548 1.10297394 11.10985626 1.09765625 12.25390625 C1.0962413 13.38448959 1.09482635 14.51507294 1.09336853 15.67991638 C1.08775019 19.30747065 1.07519458 22.93496424 1.0625 26.5625 C1.05748736 29.01497307 1.05292405 31.4674471 1.04882812 33.91992188 C1.0377748 39.94663545 1.02101884 45.97331339 1 52 C0.67 52 0.34 52 0 52 C-0.86173931 39.98181423 -1.11902069 28.04753921 -1 16 C-3.31 16 -5.62 16 -8 16 C-8 11.05 -8 6.1 -8 1 C-5.26752652 -0.36623674 -3.01801098 -0.128426 0 0 Z " fill="#E15D35" transform="translate(166,46)"/>
<path d="M0 0 C2.64 0 5.28 0 8 0 C8 7.92 8 15.84 8 24 C5.36 24 2.72 24 0 24 C0 16.08 0 8.16 0 0 Z " fill="#4D6196" transform="translate(104,76)"/>
<path d="M0 0 C2.31 0 4.62 0 7 0 C7.06058594 0.63808594 7.12117188 1.27617188 7.18359375 1.93359375 C7.26738281 2.75988281 7.35117188 3.58617188 7.4375 4.4375 C7.51871094 5.26121094 7.59992188 6.08492188 7.68359375 6.93359375 C7.78930815 8.98662025 7.78930815 8.98662025 9 10 C9.125 12.5 9.125 12.5 9 15 C8.67 15.33 8.34 15.66 8 16 C7.76924918 17.34747084 7.58846937 18.70377565 7.4375 20.0625 C7.293125 21.361875 7.14875 22.66125 7 24 C4.69 24 2.38 24 0 24 C0 16.08 0 8.16 0 0 Z " fill="#405590" transform="translate(83,76)"/>
<path d="M0 0 C2.375 -0.125 2.375 -0.125 5 0 C7 2 7 2 7.25 4.5 C7 7 7 7 5 9 C2.4375 9.1875 2.4375 9.1875 0 9 C-0.495 8.505 -0.495 8.505 -1 8 C-2.37829815 7.89253688 -3.76199051 7.85320669 -5.14442444 7.84178162 C-6.03769943 7.8319928 -6.93097443 7.82220398 -7.85131836 7.81211853 C-8.83890137 7.80636307 -9.82648438 7.8006076 -10.84399414 7.79467773 C-11.87801865 7.78477814 -12.91204315 7.77487854 -13.97740173 7.76467896 C-17.41329619 7.73295787 -20.84920451 7.70826476 -24.28515625 7.68359375 C-26.660277 7.66303337 -29.03539402 7.64203716 -31.4105072 7.62062073 C-37.67572005 7.56530539 -43.94096643 7.51593798 -50.20623779 7.46777344 C-56.59390259 7.41762732 -62.98151842 7.36190538 -69.36914062 7.30664062 C-81.91271834 7.19894339 -94.45633782 7.0973351 -107 7 C-107 6.67 -107 6.34 -107 6 C-73.01 6 -39.02 6 -4 6 C-4 5.34 -4 4.68 -4 4 C-3.34 4 -2.68 4 -2 4 C-1.34 2.68 -0.68 1.36 0 0 Z " fill="#F4B45A" transform="translate(118,62)"/>
<path d="M0 0 C2.31 0 4.62 0 7 0 C7 7.92 7 15.84 7 24 C4.69 24 2.38 24 0 24 C0 16.08 0 8.16 0 0 Z " fill="#42588F" transform="translate(93,76)"/>
<path d="M0 0 C3.96 0 7.92 0 12 0 C12 1.66666667 12 3.33333333 12 5 C10.35 5.33 8.7 5.66 7 6 C6.67 11.28 6.34 16.56 6 22 C4.02 22 2.04 22 0 22 C0 14.74 0 7.48 0 0 Z " fill="#314988" transform="translate(58,77)"/>
<path d="M0 0 C4.95 0 9.9 0 15 0 C15 0.33 15 0.66 15 1 C10.38 1 5.76 1 1 1 C1 8.26 1 15.52 1 23 C2.98 23 4.96 23 7 23 C7 17.72 7 12.44 7 7 C8.98 7 10.96 7 13 7 C15 9 15 9 15.25 12 C15 15 15 15 13 17 C11.68 17 10.36 17 9 17 C9 18.98 9 20.96 9 23 C10.98 23 12.96 23 15 23 C15 23.33 15 23.66 15 24 C10.05 24 5.1 24 0 24 C0 16.08 0 8.16 0 0 Z " fill="#8896B3" transform="translate(57,76)"/>
<path d="M0 0 C1.98 0.99 1.98 0.99 4 2 C4.66 1.34 5.32 0.68 6 0 C6 1.32 6 2.64 6 4 C6.66 4 7.32 4 8 4 C7.67 7.96 7.34 11.92 7 16 C4.69 16 2.38 16 0 16 C0 10.72 0 5.44 0 0 Z " fill="#3A508C" transform="translate(88,43)"/>
<path d="M0 0 C1.8871875 0.0309375 1.8871875 0.0309375 3.8125 0.0625 C3.4825 1.7125 3.1525 3.3625 2.8125 5.0625 C1.1625 5.3925 -0.4875 5.7225 -2.1875 6.0625 C-2.1875 7.7125 -2.1875 9.3625 -2.1875 11.0625 C-2.8475 10.4025 -3.5075 9.7425 -4.1875 9.0625 C-5.5075 9.0625 -6.8275 9.0625 -8.1875 9.0625 C-8.5175 13.6825 -8.8475 18.3025 -9.1875 23.0625 C-9.5175 23.0625 -9.8475 23.0625 -10.1875 23.0625 C-10.26853404 20.14527452 -10.32801081 17.23030484 -10.375 14.3125 C-10.40013672 13.4875 -10.42527344 12.6625 -10.45117188 11.8125 C-10.52506769 5.70377904 -10.52506769 5.70377904 -8.86328125 2.546875 C-6.09888612 0.09822663 -3.53245046 -0.05790902 0 0 Z " fill="#576A9F" transform="translate(97.1875,35.9375)"/>
<path d="M0 0 C8.25 0 16.5 0 25 0 C25 0.33 25 0.66 25 1 C17.41 1 9.82 1 2 1 C2 2.98 2 4.96 2 7 C3.65 7 5.3 7 7 7 C7 12.61 7 18.22 7 24 C6.67 24 6.34 24 6 24 C6 18.72 6 13.44 6 8 C4.35 8 2.7 8 1 8 C1 13.28 1 18.56 1 24 C0.34 24 -0.32 24 -1 24 C-1.02909763 20.75001888 -1.04683161 17.50007143 -1.0625 14.25 C-1.07087891 13.32960938 -1.07925781 12.40921875 -1.08789062 11.4609375 C-1.09111328 10.57148437 -1.09433594 9.68203125 -1.09765625 8.765625 C-1.10289307 7.94868164 -1.10812988 7.13173828 -1.11352539 6.29003906 C-1 4 -1 4 0 0 Z " fill="#B2BCCF" transform="translate(49,35)"/>
<path d="M0 0 C4.29 0 8.58 0 13 0 C13 0.33 13 0.66 13 1 C9.04 1 5.08 1 1 1 C1 8.26 1 15.52 1 23 C2.98 23 4.96 23 7 23 C7 17.72 7 12.44 7 7 C7.99 7 8.98 7 10 7 C9.67 9.64 9.34 12.28 9 15 C9.66 15 10.32 15 11 15 C10.34 17.64 9.68 20.28 9 23 C10.32 23.33 11.64 23.66 13 24 C8.71 24 4.42 24 0 24 C0 16.08 0 8.16 0 0 Z " fill="#7989B1" transform="translate(11,76)"/>
<path d="M0 0 C1 1 1 1 1.1875 3.9375 C1 7 1 7 -1 9 C-4 9.25 -4 9.25 -7 9 C-9 7 -9 7 -9.125 3.875 C-9.08375 2.92625 -9.0425 1.9775 -9 1 C-5.65903378 -1.10357132 -3.7625171 -1.11858616 0 0 Z " fill="#EBEFF5" transform="translate(46,84)"/>
<path d="M0 0 C0.33 0 0.66 0 1 0 C1 6.93 1 13.86 1 21 C-0.98 21 -2.96 21 -5 21 C-5 15.39 -5 9.78 -5 4 C-5.99 3.67 -6.98 3.34 -8 3 C-6.68 3 -5.36 3 -4 3 C-3.67 6.63 -3.34 10.26 -3 14 C-1.23384882 9.29026351 -0.51405169 4.96916636 0 0 Z " fill="#3A508B" transform="translate(47,38)"/>
<path d="M0 0 C2.8125 2 2.8125 2 5 5 C5.40846482 8.0481687 5.29948476 10.94525548 5 14 C4.67 14 4.34 14 4 14 C3.67 12.02 3.34 10.04 3 8 C2.01 8.33 1.02 8.66 0 9 C-0.33 8.01 -0.66 7.02 -1 6 C-1.66 5.67 -2.32 5.34 -3 5 C-3.33 5.66 -3.66 6.32 -4 7 C-5.98 6.34 -7.96 5.68 -10 5 C-10 4.67 -10 4.34 -10 4 C-8.35 4 -6.7 4 -5 4 C-5.66 2.68 -6.32 1.36 -7 0 C-4.19664415 -1.40167793 -2.9650644 -0.96536981 0 0 Z " fill="#3F5694" transform="translate(75,78)"/>
<path d="M0 0 C1.65 0 3.3 0 5 0 C7 2 7 2 7.25 5 C7 8 7 8 5 10 C3.35 10.33 1.7 10.66 0 11 C0 7.37 0 3.74 0 0 Z " fill="#F8FAFB" transform="translate(65,83)"/>
<path d="M0 0 C2.5625 0.1875 2.5625 0.1875 4.5625 2.1875 C4.8125 4.6875 4.8125 4.6875 4.5625 7.1875 C2.5625 9.1875 2.5625 9.1875 0 9.375 C-2.4375 9.1875 -2.4375 9.1875 -3.4375 8.1875 C-3.5625 4.6875 -3.5625 4.6875 -3.4375 1.1875 C-2.4375 0.1875 -2.4375 0.1875 0 0 Z " fill="#DF5E38" transform="translate(120.4375,61.8125)"/>
<path d="M0 0 C5.94 0 11.88 0 18 0 C18 4.62 18 9.24 18 14 C17.03964844 13.83628906 16.07929688 13.67257813 15.08984375 13.50390625 C10.57586275 12.85905182 6.11378358 12.88982338 1.5625 12.9375 C0.32209961 12.94426758 0.32209961 12.94426758 -0.94335938 12.95117188 C-2.96227146 12.96284189 -4.98114574 12.98077282 -7 13 C-7 12.34 -7 11.68 -7 11 C-3.54168414 10.97105453 -0.08339928 10.95322 3.375 10.9375 C4.85226563 10.92493164 4.85226563 10.92493164 6.359375 10.91210938 C7.77089844 10.90727539 7.77089844 10.90727539 9.2109375 10.90234375 C10.08024902 10.89710693 10.94956055 10.89187012 11.84521484 10.88647461 C14 11 14 11 16 12 C16.33 8.37 16.66 4.74 17 1 C11.39 1 5.78 1 0 1 C0 0.67 0 0.34 0 0 Z " fill="#DA542E" transform="translate(161,12)"/>
<path d="M0 0 C0.33 0 0.66 0 1 0 C1.25 6.625 1.25 6.625 -1 10 C-0.01 9.67 0.98 9.34 2 9 C2.66 9.33 3.32 9.66 4 10 C3.34 11.32 2.68 12.64 2 14 C-0.64 14 -3.28 14 -6 14 C-6 12.02 -6 10.04 -6 8 C-5.195625 7.79375 -4.39125 7.5875 -3.5625 7.375 C-2.716875 6.92125 -1.87125 6.4675 -1 6 C-0.10169161 2.94727535 -0.10169161 2.94727535 0 0 Z " fill="#5C6EA0" transform="translate(72,85)"/>
<path d="M0 0 C0 0.33 0 0.66 0 1 C-1.11375 1.103125 -2.2275 1.20625 -3.375 1.3125 C-4.57125 1.539375 -5.7675 1.76625 -7 2 C-7.99 3.485 -7.99 3.485 -9 5 C-9.66 5 -10.32 5 -11 5 C-11.33 10.94 -11.66 16.88 -12 23 C-10.02 23 -8.04 23 -6 23 C-5.67 21.68 -5.34 20.36 -5 19 C-5 20.65 -5 22.3 -5 24 C-7.64 24 -10.28 24 -13 24 C-13.13530844 20.93601549 -13.2342407 17.87802874 -13.3125 14.8125 C-13.35439453 13.94818359 -13.39628906 13.08386719 -13.43945312 12.19335938 C-13.52562202 7.69534309 -13.46814342 5.6436972 -10.75 1.90625 C-6.74486551 -0.87003641 -4.74257446 -0.40191309 0 0 Z " fill="#8592B4" transform="translate(44,35)"/>
<path d="M0 0 C0.99 0 1.98 0 3 0 C3 5.61 3 11.22 3 17 C2.67 17 2.34 17 2 17 C2 15.35 2 13.7 2 12 C1.34 11.67 0.68 11.34 0 11 C0 7.37 0 3.74 0 0 Z " fill="#BAC3D5" transform="translate(39,42)"/>
<path d="M0 0 C0.99 0 1.98 0 3 0 C3 5.61 3 11.22 3 17 C2.67 17 2.34 17 2 17 C2 15.35 2 13.7 2 12 C1.34 11.67 0.68 11.34 0 11 C0 7.37 0 3.74 0 0 Z " fill="#B4BFDB" transform="translate(95,42)"/>
<path d="M0 0 C1.98 0 3.96 0 6 0 C5.38245741 1.31602523 4.75571258 2.62773556 4.125 3.9375 C3.77695313 4.66839844 3.42890625 5.39929687 3.0703125 6.15234375 C2 8 2 8 0 9 C-0.84454356 5.62182575 -1.10844919 3.32534757 0 0 Z " fill="#374E87" transform="translate(80,36)"/>
<path d="M0 0 C2.66929007 0.8657157 4.67741836 1.72191238 6.8125 3.5625 C8.62592027 7.28478371 8.23472483 10.93143633 8 15 C7.67 15 7.34 15 7 15 C6.90203125 14.30132812 6.8040625 13.60265625 6.703125 12.8828125 C6.55359375 11.97273438 6.4040625 11.06265625 6.25 10.125 C6.11078125 9.22007813 5.9715625 8.31515625 5.828125 7.3828125 C5.24001221 4.84198758 5.24001221 4.84198758 2.984375 3.8671875 C2.32953125 3.58101563 1.6746875 3.29484375 1 3 C0.67 2.01 0.34 1.02 0 0 Z " fill="#5F6F9A" transform="translate(72,77)"/>
<path d="M0 0 C0.99 0 1.98 0 3 0 C2.67 2.64 2.34 5.28 2 8 C2.66 8 3.32 8 4 8 C3.67 8.99 3.34 9.98 3 11 C2.01 11 1.02 11 0 11 C0 7.37 0 3.74 0 0 Z " fill="#A1B2D2" transform="translate(18,83)"/>
<path d="M0 0 C0.33 0.99 0.66 1.98 1 3 C-1.9465385 4.80066242 -4.88801935 6.50163895 -8 8 C-8.33 7.01 -8.66 6.02 -9 5 C-2.40909091 0 -2.40909091 0 0 0 Z " fill="#E45B35" transform="translate(151,23)"/>
<path d="M0 0 C6.93 0 13.86 0 21 0 C21.33 0.99 21.66 1.98 22 3 C21.42926758 2.83701416 20.85853516 2.67402832 20.27050781 2.50610352 C17.98346733 1.99631481 16.01035544 1.88564032 13.671875 1.90234375 C12.47304687 1.90717773 12.47304687 1.90717773 11.25 1.91210938 C10.0125 1.92467773 10.0125 1.92467773 8.75 1.9375 C7.90953125 1.94201172 7.0690625 1.94652344 6.203125 1.95117188 C4.13538599 1.96292039 2.06768376 1.98085478 0 2 C0 1.34 0 0.68 0 0 Z " fill="#DA6546" transform="translate(154,23)"/>
<path d="M0 0 C1.32 0 2.64 0 4 0 C4 0.99 4 1.98 4 3 C5.32 3 6.64 3 8 3 C8 3.66 8 4.32 8 5 C5.36 5 2.72 5 0 5 C0 3.35 0 1.7 0 0 Z " fill="#364C86" transform="translate(66,94)"/>
<path d="M0 0 C0.33 0 0.66 0 1 0 C1 1.98 1 3.96 1 6 C0.01 6 -0.98 6 -2 6 C-2.33 7.32 -2.66 8.64 -3 10 C-3 8.68 -3 7.36 -3 6 C-3.66 6 -4.32 6 -5 6 C-4.34 4.68 -3.68 3.36 -3 2 C-2.34 2.33 -1.68 2.66 -1 3 C-1.33 3.66 -1.66 4.32 -2 5 C-1.34 5 -0.68 5 0 5 C0 3.35 0 1.7 0 0 Z " fill="#5F73A4" transform="translate(28,36)"/>
<path d="M0 0 C0 0.66 0 1.32 0 2 C-1.3921875 2.433125 -1.3921875 2.433125 -2.8125 2.875 C-6.09791667 3.8875 -6.09791667 3.8875 -9 6 C-8.625 3.5625 -8.625 3.5625 -8 1 C-5.29120665 -0.35439668 -2.99066732 -0.06501451 0 0 Z " fill="#314A83" transform="translate(99,36)"/>
<path d="M0 0 C0 0.33 0 0.66 0 1 C-1.11375 1.103125 -2.2275 1.20625 -3.375 1.3125 C-4.57125 1.539375 -5.7675 1.76625 -7 2 C-7.99 3.485 -7.99 3.485 -9 5 C-9.66 5 -10.32 5 -11 5 C-11.33 5.99 -11.66 6.98 -12 8 C-11.65447612 5.44312331 -11.24912987 3.42498625 -9.9375 1.1875 C-6.75444301 -0.7634059 -3.67569327 -0.1807718 0 0 Z " fill="#7381A6" transform="translate(44,35)"/>
<path d="M0 0 C1.98 0.99 1.98 0.99 4 2 C4 4.31 4 6.62 4 9 C3.34 9 2.68 9 2 9 C1.34 6.03 0.68 3.06 0 0 Z " fill="#556695" transform="translate(24,45)"/>
<path d="M0 0 C1.27875 -0.061875 2.5575 -0.12375 3.875 -0.1875 C4.95394531 -0.23970703 4.95394531 -0.23970703 6.0546875 -0.29296875 C6.69664063 -0.19628906 7.33859375 -0.09960938 8 0 C8.66 0.99 9.32 1.98 10 3 C8.35 3.33 6.7 3.66 5 4 C5 3.34 5 2.68 5 2 C3.35 1.67 1.7 1.34 0 1 C0 0.67 0 0.34 0 0 Z " fill="#C2CBD8" transform="translate(80,35)"/>
</svg>
