<?xml version="1.0" standalone="no"?>
<!DOCTYPE svg PUBLIC "-//W3C//DTD SVG 20010904//EN"
 "http://www.w3.org/TR/2001/REC-SVG-20010904/DTD/svg10.dtd">
<svg version="1.0" xmlns="http://www.w3.org/2000/svg"
 width="1024.000000pt" height="1024.000000pt" viewBox="0 0 1024.000000 1024.000000"
 preserveAspectRatio="xMidYMid meet">

<g transform="translate(0.000000,1024.000000) scale(0.100000,-0.100000)"
fill="#000000" stroke="none">
<path d="M4551 8434 c0 -11 3 -14 6 -6 3 7 2 16 -1 19 -3 4 -6 -2 -5 -13z"/>
<path d="M6088 8413 c7 -3 16 -2 19 1 4 3 -2 6 -13 5 -11 0 -14 -3 -6 -6z"/>
<path d="M5995 8380 c-3 -6 1 -7 9 -4 18 7 21 14 7 14 -6 0 -13 -4 -16 -10z"/>
<path d="M6310 8386 c0 -3 9 -10 20 -16 11 -6 20 -8 20 -6 0 3 -9 10 -20 16
-11 6 -20 8 -20 6z"/>
<path d="M6394 8321 c139 -159 119 -390 -45 -508 -27 -19 -49 -36 -49 -38 0
-3 108 -228 250 -520 51 -104 110 -228 132 -274 21 -46 41 -81 44 -78 3 2 -56
130 -131 282 -74 153 -135 279 -135 281 0 1 -34 71 -75 155 -41 84 -74 153
-72 154 27 12 93 65 112 91 51 67 69 122 70 214 0 76 -3 92 -32 150 -17 36
-49 81 -69 100 l-38 35 38 -44z"/>
<path d="M5907 8308 c-39 -49 -61 -87 -54 -95 3 -2 8 5 12 16 3 12 24 43 46
71 22 27 37 50 35 50 -3 0 -20 -19 -39 -42z"/>
<path d="M4552 8320 c0 -14 2 -19 5 -12 2 6 2 18 0 25 -3 6 -5 1 -5 -13z"/>
<path d="M4469 8163 l-24 -28 28 24 c25 23 32 31 24 31 -2 0 -14 -12 -28 -27z"/>
<path d="M5825 8117 c-8 -59 14 -163 41 -205 12 -18 13 -27 5 -36 -7 -6 -159
-124 -339 -262 l-327 -251 -25 22 c-37 33 -105 65 -137 64 -20 -1 -23 -3 -8
-6 56 -12 89 -28 126 -59 l41 -34 141 108 c78 60 225 173 326 251 102 77 194
147 205 155 l21 13 -22 44 c-31 63 -45 136 -38 197 4 28 4 52 1 52 -2 0 -8
-24 -11 -53z"/>
<path d="M5785 7763 c-66 -51 -222 -171 -347 -265 l-226 -171 14 -40 c8 -22
13 -58 13 -81 -1 -23 -4 -31 -6 -18 -2 12 -11 22 -19 22 -9 0 -12 5 -8 13 8
14 -44 -30 -62 -53 -7 -8 -10 -17 -8 -20 3 -2 15 8 27 24 21 25 24 26 36 12
10 -12 11 -16 1 -16 -9 0 -9 -4 1 -17 13 -16 12 -17 -3 -4 -10 7 -15 18 -11
25 3 6 -4 1 -16 -12 -13 -13 -19 -28 -15 -35 4 -6 -2 -4 -13 6 -11 9 -25 17
-31 17 -7 0 -12 5 -12 11 0 5 -4 7 -10 4 -12 -7 -14 -26 -2 -24 21 4 29 -4 27
-28 0 -15 -7 -28 -15 -31 -12 -3 -13 -2 -1 6 8 6 9 12 3 16 -6 3 -13 2 -17 -3
-3 -6 -20 -8 -37 -6 -30 4 -47 -7 -48 -29 0 -6 7 -1 15 10 11 15 14 16 15 3 0
-8 -6 -21 -12 -28 -11 -10 -10 -11 3 -6 8 3 26 1 40 -5 23 -10 23 -10 1 -6
-13 2 -37 0 -53 -6 -28 -10 -29 -11 -12 -25 11 -10 7 -9 -11 2 -16 9 -26 13
-22 7 3 -5 -1 -12 -8 -15 -8 -3 -17 -2 -20 4 -2 5 -4 5 -2 -1 1 -7 5 -11 10
-10 5 1 13 -4 17 -12 7 -10 9 -10 9 0 0 6 5 12 11 12 5 0 8 -4 4 -9 -3 -5 5
-12 17 -14 13 -3 3 -3 -22 -2 -61 5 -103 24 -89 41 7 8 6 14 -2 20 -7 4 -9 3
-5 -4 3 -6 1 -14 -4 -17 -20 -12 -86 69 -103 126 -15 48 -17 50 -12 15 11 -97
105 -183 212 -195 l58 -6 21 -160 c12 -88 22 -149 23 -135 0 14 -6 80 -14 145
-17 140 -18 167 -6 145 5 -8 17 -78 27 -154 10 -76 20 -134 22 -127 4 11 -25
253 -34 282 -3 12 3 19 22 23 44 11 128 104 143 158 13 46 11 138 -4 184 -6
19 19 41 192 172 293 222 436 332 457 352 17 17 20 16 75 -21 88 -60 216 -84
293 -54 14 6 31 -23 98 -162 245 -510 345 -713 348 -705 1 5 -54 125 -124 268
-197 404 -274 566 -280 588 -5 20 -12 21 -122 21 -108 0 -121 2 -169 27 -28
15 -54 32 -58 38 -21 35 -41 27 -160 -67z m-555 -621 c0 -10 -6 -27 -14 -38
-13 -17 -13 -15 -3 19 13 41 17 46 17 19z m-80 -62 c0 -5 -2 -10 -4 -10 -3 0
-8 5 -11 10 -3 6 -1 10 4 10 6 0 11 -4 11 -10z m-80 -21 c0 -6 -4 -7 -10 -4
-5 3 -10 11 -10 16 0 6 5 7 10 4 6 -3 10 -11 10 -16z m38 -24 c-3 -3 -9 2 -12
12 -6 14 -5 15 5 6 7 -7 10 -15 7 -18z m52 -9 c0 -2 -8 -10 -17 -17 -16 -13
-17 -12 -4 4 13 16 21 21 21 13z m-63 -42 c-3 -3 -12 -4 -19 -1 -8 3 -5 6 6 6
11 1 17 -2 13 -5z"/>
<path d="M6296 7843 c-6 -14 -5 -15 5 -6 7 7 10 15 7 18 -3 3 -9 -2 -12 -12z"/>
<path d="M6338 7838 c-10 -10 -14 -18 -9 -18 10 0 36 29 30 34 -2 1 -12 -6
-21 -16z"/>
<path d="M7735 7751 c-69 -17 -134 -71 -171 -141 -24 -46 -25 -162 -1 -207
l17 -32 -243 -219 c-133 -120 -267 -242 -298 -270 -51 -47 -58 -50 -70 -35
-19 22 -88 53 -119 52 -16 0 -8 -5 22 -13 26 -7 62 -24 80 -38 l34 -26 245
220 c326 294 352 316 366 311 7 -3 -13 -27 -46 -56 -168 -149 -541 -490 -541
-494 0 -4 10 2 22 13 65 56 554 500 559 507 4 5 22 -2 41 -16 200 -153 473 29
403 269 -37 127 -172 206 -300 175z m178 -38 c33 -16 57 -39 77 -70 32 -51 37
-67 18 -60 -7 2 -12 12 -10 21 3 15 0 16 -18 6 -21 -11 -21 -12 -3 -26 17 -13
17 -14 -6 -11 -14 1 -26 -4 -28 -13 -4 -13 -3 -13 6 0 12 18 24 9 15 -13 -3
-9 -12 -13 -20 -10 -9 3 -14 -1 -14 -13 0 -17 -1 -16 -16 2 -8 10 -14 15 -11
9 2 -5 -4 -18 -15 -27 -10 -10 -18 -14 -18 -9 0 5 -9 11 -19 14 -14 3 -18 1
-14 -9 3 -9 -2 -14 -16 -14 -20 0 -46 -32 -34 -44 3 -3 1 -6 -6 -6 -8 0 -11 6
-7 16 3 9 6 22 6 30 0 9 4 13 8 10 12 -7 38 12 28 21 -5 4 -11 2 -13 -5 -3 -6
-9 -10 -14 -6 -5 3 -11 -2 -14 -10 -3 -9 -8 -24 -12 -33 -3 -10 -7 -22 -8 -28
-5 -27 -7 -29 -14 -10 -5 11 -4 28 1 39 8 14 7 17 -4 14 -7 -3 -13 -18 -13
-34 0 -29 -4 -35 -27 -33 -7 0 -4 4 7 9 16 6 14 8 -12 7 -18 0 -33 -4 -33 -9
0 -5 5 -6 12 -2 6 4 8 3 4 -4 -3 -6 2 -16 11 -22 17 -11 17 -11 -1 -6 -13 5
-17 2 -12 -9 3 -8 1 -15 -3 -15 -14 0 -21 28 -8 34 9 3 9 5 -1 5 -7 1 -20 -8
-29 -19 -26 -31 -37 -25 -57 31 -81 224 125 409 337 302z m117 -198 c0 -8 -2
-15 -4 -15 -2 0 -6 7 -10 15 -3 8 -1 15 4 15 6 0 10 -7 10 -15z m-6 -69 c-3
-15 -8 -25 -11 -23 -2 3 -1 17 3 31 3 15 8 25 11 23 2 -3 1 -17 -3 -31z m-139
14 c3 -6 -1 -7 -9 -4 -18 7 -21 14 -7 14 6 0 13 -4 16 -10z m-51 -8 c2 -4 -4
-8 -14 -8 -10 0 -16 4 -14 8 3 4 9 8 14 8 5 0 11 -4 14 -8z m-88 -71 c0 -16
-4 -17 -18 -10 -10 5 -18 12 -18 15 0 3 4 3 9 -1 5 -3 12 -1 16 5 9 14 11 13
11 -9z"/>
<path d="M7942 7635 c4 -4 3 -14 -4 -22 -8 -11 -7 -12 6 -7 19 7 21 20 4 30
-7 4 -10 4 -6 -1z"/>
<path d="M7881 7561 c-8 -5 -9 -11 -3 -15 5 -3 12 1 16 9 6 17 6 18 -13 6z"/>
<path d="M7915 7550 c3 -5 8 -10 11 -10 2 0 4 5 4 10 0 6 -5 10 -11 10 -5 0
-7 -4 -4 -10z"/>
<path d="M7808 7533 c7 -3 16 -2 19 1 4 3 -2 6 -13 5 -11 0 -14 -3 -6 -6z"/>
<path d="M7867 7525 c3 -8 9 -12 14 -9 12 7 11 11 -5 17 -10 4 -13 1 -9 -8z"/>
<path d="M7660 7499 c0 -5 5 -7 10 -4 6 3 10 8 10 11 0 2 -4 4 -10 4 -5 0 -10
-5 -10 -11z"/>
<path d="M4893 7429 c-76 -38 -125 -109 -136 -199 l-6 -45 13 52 c28 109 86
175 175 199 31 9 38 13 21 13 -14 1 -44 -8 -67 -20z"/>
<path d="M5148 7213 c7 -3 16 -2 19 1 4 3 -2 6 -13 5 -11 0 -14 -3 -6 -6z"/>
<path d="M5124 7192 c4 -7 2 -12 -3 -12 -6 0 -11 -4 -11 -10 0 -15 17 -12 23
5 4 8 1 17 -5 21 -7 4 -8 3 -4 -4z"/>
<path d="M5027 7167 c-3 -8 1 -14 8 -14 7 0 11 6 8 14 -3 7 -6 13 -8 13 -2 0
-5 -6 -8 -13z"/>
<path d="M5058 7132 c-4 -12 -2 -25 4 -28 16 -10 22 4 11 28 l-10 22 -5 -22z"/>
<path d="M4980 7040 c0 -5 5 -10 10 -10 6 0 10 5 10 10 0 6 -4 10 -10 10 -5 0
-10 -4 -10 -10z"/>
<path d="M4940 7030 c0 -5 7 -7 15 -4 8 4 15 8 15 10 0 2 -7 4 -15 4 -8 0 -15
-4 -15 -10z"/>
<path d="M6763 6893 c9 -2 23 -2 30 0 6 3 -1 5 -18 5 -16 0 -22 -2 -12 -5z"/>
<path d="M6653 6838 c-66 -70 -87 -154 -59 -239 10 -31 14 -54 8 -58 -19 -12
-357 -287 -386 -314 -37 -34 121 88 287 222 98 79 117 99 112 116 -30 98 -29
148 5 215 10 20 33 49 50 64 17 14 28 26 23 26 -5 0 -23 -15 -40 -32z"/>
<path d="M7016 6770 c4 -14 9 -56 11 -94 4 -60 3 -68 -11 -63 -12 5 -16 0 -16
-16 0 -18 2 -19 10 -7 5 8 10 11 10 7 0 -11 -29 -67 -36 -67 -2 0 0 9 6 20 8
14 8 26 0 41 -13 23 -12 23 -30 -10 -6 -13 -7 -21 -2 -17 16 10 25 -13 12 -29
-10 -12 -10 -15 1 -15 7 0 -7 -14 -31 -32 -75 -55 -200 -51 -271 10 -26 21
-34 24 -50 14 -27 -17 -399 -323 -399 -328 0 -3 89 67 198 154 108 87 202 162
209 165 6 4 24 -4 39 -18 28 -26 109 -55 152 -55 49 0 105 25 152 67 27 24 52
53 55 63 5 14 13 19 28 15 12 -2 261 -54 552 -115 292 -61 547 -116 568 -121
35 -9 37 -12 37 -48 0 -54 23 -123 60 -182 l33 -50 -24 -27 c-27 -31 -132
-143 -264 -282 -49 -52 -180 -191 -289 -308 -110 -116 -201 -212 -204 -212 -2
0 -35 19 -73 43 -58 35 -67 45 -61 62 4 11 7 58 7 105 -1 93 -11 122 -67 186
-30 34 -113 84 -140 84 -7 0 10 -11 37 -24 60 -27 108 -73 137 -130 21 -40 28
-133 17 -221 -4 -29 -24 -54 -44 -54 -5 0 -3 4 6 9 11 6 15 19 12 37 -2 16 -5
33 -5 40 -1 6 -9 11 -19 10 -15 -1 -16 -4 -6 -17 7 -8 17 -18 22 -22 6 -5 5
-8 -4 -8 -7 0 -11 -6 -7 -15 6 -18 -25 -21 -54 -5 -15 8 -20 6 -26 -13 -4 -12
-7 -28 -5 -36 1 -7 -2 -10 -9 -6 -6 4 -8 16 -4 28 4 12 9 29 11 37 3 8 -5 0
-16 -19 -12 -18 -24 -31 -27 -28 -3 3 -17 -1 -31 -8 -19 -10 -32 -11 -47 -4
-19 9 -20 9 -3 -4 19 -16 24 -32 5 -21 -7 4 -8 3 -4 -4 4 -7 0 -12 -11 -13
-10 0 -13 -3 -5 -6 6 -2 12 -9 12 -15 0 -16 28 -39 35 -29 3 6 12 8 20 5 7 -3
23 0 35 6 14 8 20 8 16 1 -12 -19 -78 -32 -95 -18 -12 9 -13 9 -7 0 5 -9 0
-13 -13 -13 -12 0 -21 4 -21 8 0 5 -14 6 -31 4 -21 -3 -30 -1 -25 6 3 6 1 14
-5 18 -8 5 -9 3 -4 -6 12 -19 -34 -2 -72 26 -44 33 -78 80 -97 134 -15 41 -16
42 -11 10 13 -84 104 -175 198 -201 95 -26 217 10 283 83 19 21 36 38 38 38 8
0 615 -392 843 -544 l41 -28 -15 -45 c-30 -86 -4 -228 52 -293 11 -13 -27 -60
-262 -322 l-275 -306 -36 15 c-57 24 -133 13 -188 -26 l-45 -31 -335 177 -335
178 8 35 c4 19 8 65 7 102 -1 84 -37 161 -100 217 -56 50 -118 71 -205 71 -58
0 -77 -5 -134 -35 l-67 -35 -67 73 c-37 39 -118 128 -180 197 -63 69 -127 139
-144 155 -42 41 134 -162 266 -307 94 -104 119 -138 103 -138 -3 0 -98 101
-212 225 -114 124 -209 225 -213 225 -3 0 13 -19 35 -42 22 -24 118 -129 212
-234 l172 -192 -27 -47 c-34 -62 -43 -163 -19 -235 9 -28 14 -56 10 -61 -7
-12 -775 -522 -778 -517 -29 46 -77 92 -118 112 -94 47 -235 30 -305 -36 -13
-12 -23 -25 -23 -30 0 -5 10 1 23 12 27 26 77 54 77 43 0 -5 5 -1 10 7 12 19
171 22 177 3 3 -7 10 -10 17 -7 7 3 19 -2 26 -11 11 -13 9 -15 -9 -15 -14 0
-21 -6 -21 -19 0 -21 -13 -34 -24 -24 -3 3 -1 12 6 20 8 11 7 12 -6 7 -10 -4
-15 -12 -12 -20 3 -7 -2 -18 -10 -24 -8 -7 -14 -18 -14 -24 0 -8 2 -8 8 0 5 9
10 8 19 -1 10 -10 9 -16 -2 -25 -17 -14 -35 -5 -36 18 0 11 -2 12 -6 4 -3 -7
1 -19 7 -27 18 -21 4 -48 -20 -42 -11 3 -23 1 -26 -4 -3 -6 -13 -9 -22 -8 -31
3 -33 -1 -16 -26 15 -23 15 -25 0 -25 -8 0 -13 6 -10 13 6 16 -33 20 -42 5 -4
-6 -2 -8 4 -4 6 3 14 1 18 -5 4 -8 3 -9 -4 -5 -7 4 -12 2 -12 -5 0 -7 -7 -4
-16 7 -8 10 -13 14 -10 7 4 -6 2 -14 -4 -18 -5 -3 -10 -1 -10 6 0 7 -2 10 -5
7 -12 -11 7 -37 23 -31 14 4 14 3 3 -5 -10 -7 -21 -6 -37 5 -29 19 -47 8 -40
-23 4 -14 2 -24 -4 -24 -6 0 -9 4 -5 9 3 5 1 12 -5 16 -6 4 -6 12 2 24 9 15 8
22 -5 35 -9 10 -13 24 -10 34 3 9 2 14 -2 9 -8 -7 -13 -30 -14 -76 -2 -43 -13
-14 -13 33 0 62 11 105 25 102 7 -1 9 -1 5 1 -5 3 -6 17 -3 31 3 18 -2 12 -16
-18 -12 -25 -24 -63 -27 -86 -5 -52 19 -138 53 -184 32 -43 97 -88 141 -96 28
-5 33 -10 29 -28 -4 -19 -115 -806 -115 -818 0 -3 -30 -7 -67 -10 -119 -9
-214 -72 -265 -176 -29 -59 -33 -76 -33 -152 0 -73 4 -93 28 -141 67 -137 217
-212 359 -179 114 27 189 86 237 190 34 73 35 191 3 262 -37 83 -121 158 -219
193 -1 0 25 190 57 420 33 231 60 421 60 422 0 1 24 7 54 13 136 28 222 142
215 284 l-3 51 225 150 c124 83 302 201 396 264 l172 113 42 -36 c63 -53 139
-79 219 -73 76 5 133 31 196 89 l44 40 335 -177 c310 -164 335 -179 328 -199
-4 -11 -8 -47 -7 -79 0 -46 6 -65 30 -99 88 -124 274 -109 339 28 23 50 21
133 -5 184 -12 24 -17 46 -13 54 4 7 125 143 267 302 143 159 260 290 261 291
0 1 32 -14 70 -33 67 -34 74 -36 155 -32 127 6 208 58 268 171 36 70 39 196 5
270 -36 77 -78 123 -145 156 -53 27 -72 31 -143 31 -71 0 -90 -4 -143 -30 -33
-17 -74 -46 -91 -65 l-30 -35 -350 228 c-192 125 -350 230 -350 233 -1 4 83
96 186 205 103 110 277 294 386 411 l200 212 24 -19 c43 -33 130 -60 197 -60
166 0 292 91 346 250 60 175 -26 368 -198 448 -48 23 -71 27 -147 27 -76 0
-99 -4 -146 -27 -31 -14 -74 -42 -96 -62 -38 -34 -103 -139 -103 -167 0 -8 -4
-20 -9 -27 -8 -14 -25 -10 -894 176 l-269 57 -3 56 c-2 31 -11 70 -20 85 -15
27 -16 27 -9 4z m1636 -116 c68 -17 118 -46 166 -95 47 -47 58 -69 32 -62 -13
4 -20 0 -20 -10 0 -23 -47 -28 -53 -5 -3 10 -1 18 4 18 5 0 9 11 9 25 0 28 9
31 30 13 12 -11 12 -10 1 5 -18 23 -34 17 -41 -14 -5 -20 -12 -24 -43 -23 -20
1 -34 -2 -31 -7 2 -4 11 -6 19 -2 11 4 13 1 9 -11 -3 -9 -9 -14 -13 -12 -4 3
-13 0 -21 -6 -12 -8 -12 -9 2 -5 9 3 18 1 20 -4 2 -6 12 -7 22 -3 13 5 15 9 5
15 -8 4 -10 11 -6 15 4 4 13 2 19 -4 9 -9 7 -17 -10 -35 -12 -13 -22 -30 -22
-39 0 -9 -11 -18 -25 -20 -20 -4 -23 -3 -14 8 6 8 16 11 23 7 6 -3 8 -3 4 2
-4 4 -3 14 2 20 13 15 -12 28 -35 19 -12 -5 -13 -10 -4 -20 9 -11 8 -15 -5
-20 -9 -3 -16 -14 -17 -23 0 -10 -2 -12 -6 -3 -3 7 1 20 9 29 9 12 9 15 1 9
-9 -5 -13 0 -13 13 0 12 5 21 12 21 6 0 9 3 6 6 -4 3 -17 -2 -30 -10 -14 -9
-28 -13 -31 -9 -9 9 -58 -37 -51 -48 3 -5 14 -5 24 1 13 7 20 6 23 -3 2 -7 8
-8 13 -3 5 5 4 11 -4 13 -10 4 -10 8 -1 19 6 8 15 14 20 14 12 0 12 -47 0 -52
-5 -1 -11 -12 -13 -23 -1 -11 -7 -23 -13 -27 -15 -11 -37 -9 -30 2 4 6 11 8
16 5 5 -4 9 -1 9 4 0 6 -7 11 -15 11 -8 0 -12 6 -9 15 4 10 0 13 -16 10 -28
-5 -39 -15 -17 -15 10 0 17 -5 17 -11 0 -6 -7 -8 -16 -5 -13 5 -15 1 -10 -21
6 -27 6 -27 -9 -9 -8 11 -15 15 -15 9 0 -6 7 -16 16 -24 13 -10 17 -10 24 0 5
9 10 10 14 2 4 -6 2 -11 -4 -11 -6 0 -8 -4 -5 -10 7 -12 -23 -2 -44 14 -11 8
-13 8 -7 -1 4 -7 2 -21 -4 -30 -10 -16 -10 -15 -5 4 6 21 3 22 -27 19 -18 -2
-42 0 -53 6 -14 7 -13 4 4 -10 14 -11 30 -18 37 -15 7 2 15 0 19 -6 8 -14 -21
-14 -47 0 -14 8 -23 8 -27 1 -4 -7 -12 -8 -21 -2 -9 5 -19 5 -27 -2 -8 -6 -17
-8 -20 -4 -4 4 -1 11 7 16 8 5 11 12 8 15 -10 10 -28 -4 -28 -21 0 -8 -3 -13
-7 -12 -5 0 -24 -6 -43 -15 -19 -9 -30 -16 -23 -17 8 0 10 -7 6 -17 -6 -16 -5
-16 10 -5 9 8 22 10 28 6 8 -5 10 -2 7 8 -4 8 -2 21 3 29 6 10 9 7 9 -11 -1
-14 -7 -34 -15 -44 -15 -20 -15 -20 -15 0 -1 18 -1 18 -14 1 -8 -10 -16 -15
-18 -10 -14 25 -30 106 -26 132 2 17 1 28 -3 25 -4 -2 -10 -1 -13 4 -3 5 -40
17 -83 27 -43 10 -82 23 -88 28 -6 7 -4 8 6 4 10 -3 46 -11 80 -18 35 -6 68
-16 74 -20 11 -11 26 -12 23 -1 -1 4 2 21 7 37 44 163 174 268 339 274 15 1
55 -6 88 -15z m-1352 -98 c69 -14 211 -44 315 -66 105 -22 235 -50 290 -61 55
-12 105 -26 110 -31 7 -7 7 -9 0 -6 -5 3 -32 9 -59 12 -58 8 -475 94 -496 102
-8 4 -26 8 -40 9 -32 3 -384 76 -389 81 -1 1 0 7 3 12 3 5 35 1 73 -9 37 -9
124 -28 193 -43z m1590 -106 c5 -10 10 -25 10 -32 -1 -7 -7 2 -15 20 -16 36
-23 38 -51 17 -29 -22 -36 -18 -11 8 24 26 49 21 67 -13z m-106 -21 c-3 -5
-10 -7 -15 -3 -5 3 -7 10 -3 15 3 5 10 7 15 3 5 -3 7 -10 3 -15z m-74 7 c0 -3
-4 -8 -10 -11 -5 -3 -10 -1 -10 4 0 6 5 11 10 11 6 0 10 -2 10 -4z m-110 -21
c-7 -9 -15 -13 -17 -11 -7 7 7 26 19 26 6 0 6 -6 -2 -15z m212 -9 c7 4 8 2 4
-5 -9 -13 -26 -5 -25 12 0 9 2 8 6 -1 2 -6 10 -9 15 -6z m-451 -173 c-22 -15
-41 -10 -41 10 0 7 4 6 11 -3 9 -13 11 -13 22 2 6 9 15 14 20 11 5 -3 -1 -12
-12 -20z m67 -14 c-3 -8 -7 -3 -11 10 -4 17 -3 21 5 13 5 -5 8 -16 6 -23z
m-53 -9 c-3 -5 -12 -10 -18 -10 -7 0 -6 4 3 10 19 12 23 12 15 0z m-98 -65 c0
-8 -4 -12 -9 -9 -4 3 -8 9 -8 15 0 5 4 9 8 9 5 0 9 -7 9 -15z m57 -1 c3 -8 2
-12 -4 -9 -6 3 -10 10 -10 16 0 14 7 11 14 -7z m-19 -123 c-16 -16 -32 -27
-34 -25 -9 8 11 35 31 44 35 14 35 12 3 -19z m-71 -72 c-16 -18 -47 -51 -69
-74 -22 -23 -73 -79 -114 -124 -40 -44 -78 -78 -82 -75 -5 3 -7 10 -3 15 3 5
10 7 15 4 5 -4 9 0 9 7 0 7 33 47 72 88 39 41 95 100 124 131 29 31 56 54 59
51 3 -3 5 1 5 8 0 7 3 10 7 7 3 -4 -7 -21 -23 -38z m-274 -288 c0 -12 -198
-222 -222 -237 -10 -5 -16 -12 -13 -15 3 -3 -33 -42 -79 -87 -46 -45 -81 -84
-78 -87 3 -3 0 -5 -6 -5 -28 0 -30 -2 198 240 81 85 155 165 166 178 19 23 34
29 34 13z m-690 -368 c0 -5 -5 -15 -10 -23 -7 -12 -9 -10 -7 8 1 19 17 33 17
15z m150 -34 c0 -4 -13 -1 -29 9 -16 9 -27 20 -25 24 6 9 54 -20 54 -33z
m-120 21 c0 -5 -2 -10 -4 -10 -3 0 -8 5 -11 10 -3 6 -1 10 4 10 6 0 11 -4 11
-10z m-93 -24 c-2 -6 -11 -10 -20 -8 -11 2 -15 -2 -11 -13 3 -8 1 -15 -6 -15
-6 0 -8 5 -5 10 9 15 -4 12 -21 -4 -11 -11 -11 -16 -1 -19 7 -3 5 -6 -5 -6
-10 -1 -18 2 -18 7 1 20 51 59 77 59 8 0 12 -5 10 -11z m93 -21 c-19 -19 -37
-35 -41 -35 -10 0 54 67 65 69 6 0 -5 -15 -24 -34z m150 4 c0 -6 -4 -7 -10 -4
-5 3 -10 11 -10 16 0 6 5 7 10 4 6 -3 10 -11 10 -16z m55 -29 c10 -16 25 -12
26 8 1 9 4 4 8 -12 3 -17 10 -29 15 -27 5 2 13 -4 18 -13 5 -9 14 -13 20 -10
7 4 8 2 4 -4 -5 -8 -28 3 -71 31 -36 23 -65 46 -65 50 0 9 36 -9 45 -23z
m-270 -1 c11 -16 1 -19 -13 -3 -7 8 -8 14 -3 14 5 0 13 -5 16 -11z m474 -139
c0 -11 -4 -10 -17 5 -9 12 -32 27 -49 34 -18 7 -33 19 -33 26 0 9 18 2 50 -18
27 -18 50 -39 49 -47z m71 -42 c0 -13 -5 -9 -31 19 l-24 26 27 -19 c15 -10 28
-22 28 -26z m30 -12 c0 -3 -4 -8 -10 -11 -5 -3 -10 -1 -10 4 0 6 5 11 10 11 6
0 10 -2 10 -4z m43 -40 c-3 -5 -11 -2 -18 7 -7 9 -16 13 -20 9 -5 -4 -5 -1 -1
5 5 10 11 10 26 1 10 -7 16 -16 13 -22z m87 -51 c5 3 11 1 14 -4 4 -5 -2 -8
-11 -7 -9 2 -18 8 -19 15 -1 6 0 7 3 1 2 -5 9 -8 13 -5z m82 -49 c7 4 8 2 4
-5 -9 -13 -26 -5 -25 12 0 9 2 8 6 -1 2 -6 10 -9 15 -6z m636 -45 c44 -22 48
-47 6 -37 -24 6 -64 -11 -64 -28 0 -5 9 -1 20 9 11 10 20 13 20 7 0 -7 7 -9
17 -5 15 6 16 5 3 -9 -8 -8 -20 -14 -26 -11 -7 2 -15 0 -18 -6 -4 -6 -14 -7
-23 -4 -13 5 -12 2 3 -15 9 -12 21 -19 26 -16 4 3 5 -2 2 -10 -3 -9 -9 -15
-12 -14 -15 3 -62 -15 -57 -21 2 -4 -2 -8 -10 -8 -10 0 -12 4 -5 12 6 7 3 15
-9 22 -23 15 -61 -11 -43 -29 9 -9 12 -8 12 5 0 10 7 17 18 16 10 0 12 -3 4
-6 -6 -2 -10 -8 -7 -13 3 -5 -4 -12 -16 -15 -11 -4 -24 -16 -28 -28 -5 -12
-10 -16 -14 -10 -4 6 0 18 8 27 15 15 10 24 -12 20 -7 -1 -18 -2 -24 -3 -5 0
-8 -5 -4 -10 3 -5 1 -12 -5 -16 -5 -3 -10 3 -10 13 0 11 -7 25 -15 32 -13 11
-13 9 0 -22 13 -33 13 -37 -6 -57 -12 -12 -28 -20 -35 -17 -8 3 -17 -1 -20 -9
-4 -11 -11 -12 -24 -5 -9 5 -21 6 -25 2 -5 -4 -5 -1 -1 6 9 15 -10 16 -19 1
-4 -6 -13 -8 -21 -5 -17 7 -18 -6 -2 -22 9 -9 9 -12 0 -12 -10 0 -10 -3 0 -14
7 -8 16 -12 20 -10 3 2 3 -6 0 -18 -5 -19 -7 -20 -10 -5 -2 9 -10 17 -18 17
-19 0 -18 68 2 142 16 54 23 64 49 58 6 -1 7 2 3 6 -4 4 -2 14 4 23 10 12 8
12 -8 -1 -43 -37 -31 -16 16 28 30 28 54 43 61 38 8 -5 9 -3 4 6 -6 9 -1 10
16 5 18 -5 20 -4 9 4 -15 10 -2 18 55 34 46 13 170 0 213 -22z m-563 -2 c11
-17 -1 -21 -15 -4 -8 9 -8 15 -2 15 6 0 14 -5 17 -11z m635 -56 c0 -8 4 -11
10 -8 6 3 7 -1 4 -10 -6 -14 -8 -14 -19 1 -6 9 -17 14 -23 10 -6 -3 -14 -1
-18 5 -4 8 -3 9 4 5 7 -4 12 -3 12 2 0 5 7 9 15 9 8 0 15 -7 15 -14z m-46 -21
c3 -5 0 -9 -7 -10 -7 -1 -25 -4 -42 -7 -22 -5 -26 -4 -15 4 8 5 17 8 21 5 4
-2 10 0 14 6 8 12 22 13 29 2z m-446 -27 c-3 -3 -9 2 -12 12 -6 14 -5 15 5 6
7 -7 10 -15 7 -18z m434 -27 c-9 -9 -15 -9 -24 1 -11 10 -10 11 5 6 10 -5 17
-2 17 6 0 7 3 9 7 6 4 -4 1 -13 -5 -19z m-32 -24 c0 -8 -19 -13 -24 -6 -3 5 1
9 9 9 8 0 15 -2 15 -3z m-195 -50 c-4 -29 -2 -35 9 -31 10 4 13 1 9 -9 -5 -13
-9 -13 -26 5 -19 18 -19 23 -7 46 18 34 22 32 15 -11z m70 -12 c-3 -3 -11 0
-18 7 -9 10 -8 11 6 5 10 -3 15 -9 12 -12z m-105 -42 c8 -5 11 -10 5 -10 -5 0
-17 5 -25 10 -8 5 -10 10 -5 10 6 0 17 -5 25 -10z m-130 -11 c0 -5 4 -8 9 -5
11 7 41 -3 41 -13 0 -6 -22 -6 -62 -2 -12 1 -9 31 2 31 6 0 10 -5 10 -11z m80
-39 c0 -5 -5 -10 -11 -10 -5 0 -7 5 -4 10 3 6 8 10 11 10 2 0 4 -4 4 -10z
m-123 -42 c-3 -8 -6 -5 -6 6 -1 11 2 17 5 13 3 -3 4 -12 1 -19z m20 -35 c1
-22 -1 -24 -8 -10 -6 9 -7 22 -4 27 9 14 10 13 12 -17z m-1648 1 c51 -15 149
-89 135 -103 -3 -3 -10 2 -15 12 -6 9 -17 17 -25 17 -8 0 -13 4 -10 9 4 5 0 8
-6 7 -20 -3 -38 -16 -38 -28 0 -7 5 -6 15 2 18 15 37 4 33 -20 -2 -10 6 -28
17 -41 11 -13 13 -18 5 -11 -20 17 -30 15 -23 -5 6 -17 6 -17 -10 -1 -18 17
-23 33 -8 24 5 -3 9 5 9 18 0 17 -5 23 -14 19 -8 -3 -11 -9 -8 -14 3 -5 -2 -6
-10 -3 -9 3 -16 1 -16 -5 0 -6 5 -11 11 -11 5 0 7 -5 4 -10 -7 -11 -35 5 -33
18 2 19 -3 32 -13 32 -6 0 -8 -9 -4 -20 4 -11 2 -20 -4 -20 -6 0 -11 8 -11 17
0 9 -3 14 -6 10 -4 -3 -3 -14 1 -24 5 -10 7 -25 6 -33 -1 -8 6 -4 14 10 14 22
15 22 10 3 -4 -15 0 -25 12 -32 10 -6 13 -11 6 -11 -6 0 -15 5 -18 10 -4 6
-10 8 -15 5 -5 -3 -17 11 -26 31 -10 21 -20 32 -22 26 -2 -7 -8 -10 -13 -6 -5
3 -9 0 -9 -5 0 -10 14 -15 33 -12 13 2 7 -36 -8 -49 -8 -7 -12 -16 -9 -21 3
-5 2 -9 -3 -8 -20 3 -25 -2 -13 -16 7 -9 10 -18 6 -22 -3 -3 -6 -1 -6 5 0 7
-9 12 -21 12 -21 0 -21 0 2 21 l24 20 -24 -7 c-17 -4 -22 -3 -16 6 5 9 4 11
-3 6 -7 -4 -12 -1 -12 8 0 8 5 18 10 21 6 3 10 1 10 -6 0 -7 3 -10 6 -6 11 11
-6 25 -25 20 -19 -5 -20 -13 -6 -46 4 -10 2 -23 -5 -32 -7 -8 -10 -22 -6 -30
8 -22 -3 -45 -20 -38 -10 4 -11 9 -5 17 6 7 9 25 7 41 -5 41 -6 43 -15 20 -5
-12 -4 -23 3 -28 7 -6 4 -7 -6 -3 -10 3 -20 1 -23 -5 -4 -5 -11 -7 -16 -4 -19
12 -33 -96 -15 -117 8 -8 5 -8 -6 1 -10 7 -15 17 -13 22 3 5 -3 14 -15 21 -11
7 -20 17 -20 22 0 6 5 5 12 -2 16 -16 28 -15 28 1 0 16 -26 16 -56 -1 -12 -6
-24 -8 -28 -4 -4 3 -4 -1 0 -11 7 -19 24 -23 24 -6 0 5 5 7 11 3 8 -5 8 -9 -1
-14 -9 -6 -6 -10 9 -15 20 -6 21 -21 3 -19 -4 0 -14 -9 -23 -20 -16 -19 -16
-19 -32 5 -19 30 -32 79 -21 79 5 0 9 11 9 25 0 31 -3 31 -15 3 -8 -18 -9 -8
-7 39 2 48 12 79 38 130 33 64 40 70 108 106 83 42 141 48 230 21z m171 -157
c0 -5 -4 -5 -10 -2 -5 3 -10 14 -10 23 0 15 2 15 10 2 5 -8 10 -19 10 -23z
m1486 -9 c-11 -15 -16 -18 -16 -7 0 16 21 42 28 34 2 -2 -3 -14 -12 -27z
m-1469 -70 c-3 -7 -5 -2 -5 12 0 14 2 19 5 13 2 -7 2 -19 0 -25z m1413 -4 c0
-2 -9 -8 -20 -14 -15 -8 -18 -8 -14 3 4 11 34 21 34 11z m-1705 -14 c18 -8 17
-9 -7 -9 -16 -1 -28 4 -28 9 0 12 8 12 35 0z m-79 -36 c-4 -9 -2 -22 4 -29 18
-22 -6 -26 -28 -4 -29 27 -28 44 4 47 20 1 25 -2 20 -14z m84 6 c0 -5 -4 -10
-9 -10 -6 0 -13 5 -16 10 -3 6 1 10 9 10 9 0 16 -4 16 -10z m287 -47 c-3 -10
-5 -4 -5 12 0 17 2 24 5 18 2 -7 2 -21 0 -30z m1326 15 c-4 -7 -8 -16 -8 -20
0 -4 -10 -16 -22 -28 -33 -30 -29 -2 4 32 28 30 39 36 26 16z m-1713 -48 c9
-16 8 -18 -5 -14 -9 4 -13 9 -11 12 3 3 0 12 -7 20 -9 13 -9 14 0 8 7 -4 18
-16 23 -26z m-81 -107 c11 -24 11 -25 -4 -13 -24 20 -39 51 -22 44 8 -3 20
-17 26 -31z m511 27 c0 -5 -4 -10 -9 -10 -6 0 -13 5 -16 10 -3 6 1 10 9 10 9
0 16 -4 16 -10z m-577 -10 c-4 -4 -84 -58 -178 -121 -581 -387 -615 -409 -615
-391 0 6 658 447 749 503 26 15 59 22 44 9z m628 -14 c5 3 9 0 9 -6 0 -6 5 -8
12 -4 7 4 8 3 4 -4 -9 -15 -46 3 -45 21 0 9 2 9 6 -1 2 -6 9 -10 14 -6z m100
-51 c24 -14 37 -25 29 -24 -22 0 -108 48 -89 49 10 0 37 -11 60 -25z m97 -50
c3 -3 2 -8 -2 -12 -4 -4 -11 -2 -15 6 -5 7 -11 12 -15 11 -4 -1 -12 1 -19 4
-6 3 1 3 17 1 16 -2 31 -7 34 -10z m832 12 c0 -2 -10 -12 -21 -23 -22 -19 -22
-19 -10 4 10 18 31 31 31 19z m-780 -49 c0 -6 -6 -5 -15 2 -8 7 -15 14 -15 16
0 2 7 1 15 -2 8 -4 15 -11 15 -16z m61 -35 c13 -17 13 -17 -7 0 -11 9 -26 17
-32 17 -7 0 -12 5 -12 10 0 14 32 -3 51 -27z m654 17 c-3 -5 -11 -10 -16 -10
-6 0 -7 5 -4 10 3 6 11 10 16 10 6 0 7 -4 4 -10z m-603 -34 c7 4 8 2 4 -5 -9
-13 -26 -5 -25 12 0 9 2 8 6 -1 2 -6 10 -9 15 -6z m146 -82 c-6 -6 -66 25 -74
37 -3 6 13 1 36 -11 23 -12 40 -23 38 -26z m241 19 c-1 -17 -3 -21 -6 -10 -3
10 -15 17 -31 18 -24 0 -25 1 -7 9 35 15 45 11 44 -17z m60 8 c9 -6 10 -11 2
-15 -6 -4 -11 -2 -11 4 0 7 -8 9 -20 5 -11 -4 -20 -2 -20 4 0 13 30 14 49 2z
m-147 -8 c-6 -2 -9 -10 -6 -15 4 -7 2 -8 -4 -4 -7 4 -12 1 -12 -8 0 -9 7 -13
19 -11 11 2 18 -2 17 -8 -3 -21 -15 -23 -35 -5 -22 18 -32 14 -24 -10 4 -15 3
-15 -6 -2 -10 14 -16 7 -12 -14 1 -5 -6 -3 -16 4 -10 8 -20 16 -23 18 -3 2 2
3 10 1 8 -2 30 11 49 29 18 18 38 32 45 31 7 0 7 -2 -2 -6z m68 -46 c0 -16
-18 3 -23 25 -6 22 -5 22 8 4 8 -11 15 -24 15 -29z m-180 13 c8 -5 11 -10 5
-10 -5 0 -17 5 -25 10 -8 5 -10 10 -5 10 6 0 17 -5 25 -10z m161 -27 c13 -16
12 -17 -3 -4 -17 13 -22 21 -14 21 2 0 10 -8 17 -17z m-67 -35 c-3 -4 -11 -5
-19 -2 -11 5 -12 9 -2 19 12 13 31 -1 21 -17z m-62 -6 c-7 -2 -12 -13 -12 -24
0 -12 -3 -19 -6 -15 -11 11 6 58 18 51 9 -6 9 -9 0 -12z m113 -1 c-3 -6 -11
-11 -16 -11 -5 0 -4 6 3 14 14 16 24 13 13 -3z m222 -33 c-3 -8 -6 -5 -6 6 -1
11 2 17 5 13 3 -3 4 -12 1 -19z m-2388 -48 c25 -32 25 -33 3 -19 -12 8 -25 22
-28 31 -8 26 -21 22 -29 -9 -4 -16 -9 -23 -12 -16 -6 17 16 55 29 51 6 -2 23
-19 37 -38z m-69 20 c0 -5 -5 -10 -11 -10 -5 0 -7 5 -4 10 3 6 8 10 11 10 2 0
4 -4 4 -10z m2107 -22 c-3 -7 -5 -2 -5 12 0 14 2 19 5 13 2 -7 2 -19 0 -25z
m-2123 -25 c-4 -16 -7 -29 -8 -30 -1 -1 -12 7 -26 19 -24 19 -25 20 -2 15 14
-3 22 0 22 9 0 8 5 14 10 14 6 0 8 -11 4 -27z m61 -3 c3 -6 -1 -7 -9 -4 -18 7
-21 14 -7 14 6 0 13 -4 16 -10z m-28 -62 c-3 -8 -6 -5 -6 6 -1 11 2 17 5 13 3
-3 4 -12 1 -19z m-113 -49 c-7 -12 -41 -16 -41 -5 0 6 10 11 23 11 12 0 20 -3
18 -6z m-249 -39 c3 -5 1 -10 -4 -10 -6 0 -11 5 -11 10 0 6 2 10 4 10 3 0 8
-4 11 -10z m59 -38 c2 -4 -4 -9 -15 -9 -10 -1 -19 2 -19 8 0 11 27 12 34 1z
m80 -14 c-3 -5 -10 -6 -15 -3 -5 4 -9 -1 -9 -9 0 -9 -4 -16 -10 -16 -5 0 -6 7
-3 17 5 12 3 14 -7 8 -8 -5 -11 -4 -7 1 3 6 17 10 31 10 13 0 22 -4 20 -8z
m-149 -8 c-3 -5 -1 -20 5 -32 11 -22 10 -22 -4 -4 -18 23 -21 46 -5 46 5 0 7
-4 4 -10z m70 -110 c3 -6 -1 -7 -9 -4 -18 7 -21 14 -7 14 6 0 13 -4 16 -10z
m121 -216 c-8 -54 -25 -171 -38 -259 -13 -88 -24 -150 -26 -138 -2 12 11 118
28 235 34 238 40 271 46 265 2 -2 -2 -48 -10 -103z m-82 -582 l-17 -125 23
-17 c15 -12 20 -22 15 -31 -8 -12 -6 -12 8 -1 14 12 21 11 49 -6 41 -26 106
-92 90 -92 -7 0 -12 5 -12 11 0 5 -6 7 -12 3 -7 -4 -10 -3 -5 1 9 10 -31 55
-50 55 -7 0 -13 4 -13 9 0 5 -7 11 -14 14 -11 4 -13 1 -9 -10 5 -12 1 -14 -15
-9 -17 6 -19 3 -15 -14 5 -17 8 -19 15 -8 7 10 8 9 4 -4 -4 -13 0 -18 14 -18
13 0 18 5 14 15 -4 8 -2 15 3 15 5 0 9 -9 10 -19 2 -21 -33 -36 -43 -19 -3 5
-13 7 -21 4 -12 -5 -14 -1 -10 14 3 11 1 18 -4 14 -5 -3 -9 -14 -9 -25 0 -10
-5 -19 -11 -19 -5 0 -7 5 -4 10 3 6 1 10 -4 10 -6 0 -11 -9 -11 -20 0 -17 4
-18 24 -10 18 6 26 5 29 -4 4 -9 -2 -11 -19 -8 -14 2 -24 0 -24 -7 0 -6 5 -11
11 -11 5 0 7 -5 3 -11 -4 -8 -11 -5 -18 9 -6 11 -15 21 -20 20 -5 0 -13 6 -17
14 -7 10 -9 10 -9 0 0 -7 -4 -10 -10 -7 -6 4 -7 -2 -1 -17 5 -13 14 -22 19
-21 6 1 13 -4 16 -12 6 -17 -9 -21 -19 -5 -4 6 -11 8 -16 5 -5 -4 -9 4 -9 16
0 24 -12 19 -16 -6 -3 -18 51 -49 69 -40 7 4 3 -1 -8 -10 -12 -9 -21 -11 -23
-5 -2 5 -8 7 -13 4 -6 -3 -16 -1 -24 6 -8 7 -15 7 -19 1 -4 -5 -2 -12 4 -16 5
-3 10 -12 10 -18 0 -8 -3 -8 -9 1 -7 11 -9 11 -14 -2 -7 -17 -47 -23 -47 -7 0
5 10 7 22 3 14 -3 19 -2 14 6 -4 7 -16 12 -27 12 -10 0 -19 4 -19 8 0 4 -12 9
-27 10 -36 3 -42 11 -19 27 11 8 16 21 13 30 -9 23 -24 18 -23 -7 1 -14 -4
-22 -12 -20 -10 2 -10 -2 -1 -19 8 -17 8 -23 -2 -30 -10 -6 -10 -11 1 -24 22
-27 22 -46 0 -32 -10 6 -16 16 -12 22 3 5 -1 4 -10 -3 -17 -14 -22 -10 -37 32
-6 14 -7 26 -2 26 5 0 11 -9 14 -20 3 -11 11 -20 18 -20 10 0 10 3 1 12 -17
17 -15 31 4 24 9 -3 12 -2 9 4 -4 6 -13 9 -20 8 -8 -2 -21 6 -30 17 -9 11 -14
14 -10 7 7 -14 -3 -52 -14 -52 -4 0 -6 15 -4 33 3 23 2 28 -5 18 -6 -8 -8 -20
-5 -28 3 -7 0 -13 -5 -13 -6 0 -13 -10 -15 -22 -4 -19 -5 -18 -6 6 -3 70 89
187 180 228 44 20 185 36 175 20 -3 -6 -1 -12 5 -14 9 -3 9 -9 1 -25 -9 -16
-9 -23 1 -26 9 -4 8 -8 -3 -17 -13 -10 -13 -11 0 -7 8 2 16 10 16 18 3 32 5
33 14 19 7 -12 10 -8 10 15 0 23 -3 27 -10 15 -8 -12 -10 -11 -10 7 0 12 -4
24 -8 27 -5 3 1 69 12 147 12 79 23 134 24 125 2 -10 -4 -75 -14 -144z m121
-272 c3 -6 -1 -7 -9 -4 -18 7 -21 14 -7 14 6 0 13 -4 16 -10z m-62 -17 c-3 -7
-9 -10 -14 -7 -14 8 -11 21 5 21 8 0 12 -6 9 -14z m-103 -5 c0 -4 -7 -8 -15
-8 -8 0 -15 4 -15 8 0 5 7 9 15 9 8 0 15 -4 15 -9z m243 -18 c3 -11 2 -18 -3
-15 -4 3 -10 14 -13 25 -3 11 -2 18 3 15 4 -3 10 -14 13 -25z m-131 -5 c7 4 5
0 -6 -9 -14 -11 -21 -12 -31 -3 -17 16 -7 31 10 17 8 -7 20 -9 27 -5z m-76
-30 c9 -8 11 -15 6 -15 -5 0 -15 7 -22 15 -7 8 -9 15 -6 15 4 0 14 -7 22 -15z
m-205 -35 c23 -13 27 -55 4 -46 -10 3 -15 -1 -15 -12 -1 -9 -7 -2 -15 17 -20
46 -11 60 26 41z m-145 -21 c1 -5 3 -11 4 -14 1 -3 3 -9 4 -15 0 -5 4 -10 9
-10 4 0 12 0 18 0 6 0 1 8 -12 18 -13 12 -18 21 -12 25 6 4 18 -5 27 -18 9
-14 21 -23 25 -20 5 3 11 -2 15 -10 3 -8 16 -15 28 -16 l23 -1 -23 -6 c-13 -4
-23 -11 -22 -17 1 -5 -8 -16 -18 -23 -16 -10 -22 -10 -28 -1 -4 7 -3 10 2 6 5
-3 18 1 29 9 18 13 18 14 -6 15 l-24 1 25 7 c22 6 23 8 6 14 -10 4 -24 3 -31
-3 -9 -8 -15 -8 -20 0 -11 17 -23 11 -18 -10 3 -11 9 -17 14 -14 5 3 9 0 9 -6
0 -7 -7 -10 -15 -6 -8 3 -15 1 -15 -5 0 -5 10 -14 23 -19 l22 -9 -22 0 c-13
-1 -23 3 -23 8 0 5 -7 17 -16 26 -9 9 -18 30 -20 46 -3 27 -2 28 16 19 18 -10
19 -8 13 22 -3 19 -2 30 3 25 5 -5 10 -13 10 -18z m165 -66 c13 -16 12 -17 -3
-4 -17 13 -22 21 -14 21 2 0 10 -8 17 -17z m-130 -180 c13 -16 12 -17 -3 -4
-17 13 -22 21 -14 21 2 0 10 -8 17 -17z"/>
<path d="M8620 6590 c-9 -6 -10 -10 -3 -10 6 0 15 5 18 10 8 12 4 12 -15 0z"/>
<path d="M8710 6570 c-9 -6 -10 -10 -3 -10 6 0 15 5 18 10 8 12 4 12 -15 0z"/>
<path d="M8650 6510 c0 -5 5 -10 11 -10 5 0 7 5 4 10 -3 6 -8 10 -11 10 -2 0
-4 -4 -4 -10z"/>
<path d="M8805 6500 c-3 -5 -1 -10 4 -10 6 0 11 5 11 10 0 6 -2 10 -4 10 -3 0
-8 -4 -11 -10z"/>
<path d="M8680 6490 c0 -5 5 -10 11 -10 5 0 7 5 4 10 -3 6 -8 10 -11 10 -2 0
-4 -4 -4 -10z"/>
<path d="M8475 6420 c-3 -5 -1 -10 4 -10 6 0 11 5 11 10 0 6 -2 10 -4 10 -3 0
-8 -4 -11 -10z"/>
<path d="M8369 6348 c-11 -37 2 -58 25 -39 7 6 16 9 19 6 4 -3 4 -2 1 2 -3 4
-13 8 -22 8 -9 0 -16 6 -14 13 2 10 -6 19 -9 10z"/>
<path d="M8430 6322 c0 -15 4 -20 16 -15 9 3 12 9 7 12 -4 3 -11 10 -15 15 -5
5 -8 0 -8 -12z"/>
<path d="M8472 6326 c12 -9 14 -16 8 -24 -7 -9 -7 -9 2 -2 20 16 17 36 -6 37
-19 2 -20 1 -4 -11z"/>
<path d="M8253 6255 c0 -8 4 -12 9 -9 5 3 6 10 3 15 -9 13 -12 11 -12 -6z"/>
<path d="M7704 5388 l-19 -23 23 19 c21 18 27 26 19 26 -2 0 -12 -10 -23 -22z"/>
<path d="M8567 4821 c-4 -17 -3 -21 5 -13 5 5 8 16 6 23 -3 8 -7 3 -11 -10z"/>
<path d="M8640 4822 c0 -5 6 -9 13 -9 6 0 21 -4 32 -7 13 -5 12 -2 -5 8 -29
17 -40 20 -40 8z"/>
<path d="M8550 4780 c-9 -6 -10 -10 -3 -10 6 0 15 5 18 10 8 12 4 12 -15 0z"/>
<path d="M8520 4771 c0 -6 4 -13 10 -16 6 -3 7 1 4 9 -7 18 -14 21 -14 7z"/>
<path d="M8336 4752 c-3 -5 1 -9 9 -9 8 0 12 4 9 9 -3 4 -7 8 -9 8 -2 0 -6 -4
-9 -8z"/>
<path d="M8468 4743 c7 -3 16 -2 19 1 4 3 -2 6 -13 5 -11 0 -14 -3 -6 -6z"/>
<path d="M8549 4745 c-8 -32 18 -60 45 -49 19 7 21 20 4 30 -6 4 -8 3 -5 -2 3
-5 -3 -10 -13 -10 -14 0 -16 3 -8 13 8 11 7 12 -7 7 -13 -5 -16 -4 -11 4 4 7
5 12 2 12 -3 0 -7 -2 -7 -5z"/>
<path d="M8490 4718 c-10 -22 -10 -22 4 -4 8 10 20 15 27 10 8 -4 10 -3 5 4
-11 18 -24 14 -36 -10z"/>
<path d="M8439 4728 c-5 -15 -9 -61 -5 -58 6 7 16 60 10 60 -2 0 -4 -1 -5 -2z"/>
<path d="M8400 4710 c-9 -6 -10 -10 -3 -10 6 0 15 5 18 10 8 12 4 12 -15 0z"/>
<path d="M8302 4659 c-19 -30 -11 -32 11 -3 10 13 14 24 10 24 -5 0 -14 -9
-21 -21z"/>
<path d="M8343 4663 c4 -6 3 -13 -2 -15 -5 -1 -3 -9 5 -16 12 -11 13 -9 11 7
-2 11 -7 24 -12 28 -4 5 -5 3 -2 -4z"/>
<path d="M8373 4651 c-1 -11 4 -22 12 -24 15 -6 14 18 -1 33 -6 6 -10 3 -11
-9z"/>
<path d="M8276 4613 c-3 -4 8 -13 25 -20 23 -10 35 -10 45 -2 7 6 18 8 24 4 5
-3 10 -1 10 5 0 6 -16 10 -38 9 -21 -2 -43 0 -49 4 -5 4 -13 4 -17 0z"/>
<path d="M6626 4404 c-3 -8 0 -11 10 -7 7 3 14 0 14 -7 0 -6 5 -8 10 -5 16 10
12 22 -9 28 -11 3 -22 -1 -25 -9z"/>
<path d="M6305 4339 c-4 -6 -4 -13 -1 -16 3 -4 6 -1 6 7 0 10 4 10 18 -1 15
-13 16 -12 3 4 -16 20 -18 20 -26 6z"/>
<path d="M6510 4340 c0 -5 5 -10 11 -10 5 0 7 5 4 10 -3 6 -8 10 -11 10 -2 0
-4 -4 -4 -10z"/>
<path d="M6430 4316 c0 -2 7 -9 15 -16 9 -7 15 -8 15 -2 0 5 -7 12 -15 16 -8
3 -15 4 -15 2z"/>
<path d="M6543 4273 c9 -9 19 -14 23 -11 10 10 -6 28 -24 28 -15 0 -15 -1 1
-17z"/>
<path d="M6376 4267 c3 -10 9 -15 12 -12 3 3 0 11 -7 18 -10 9 -11 8 -5 -6z"/>
<path d="M6420 4269 c0 -5 5 -7 10 -4 6 3 10 8 10 11 0 2 -4 4 -10 4 -5 0 -10
-5 -10 -11z"/>
<path d="M6284 4259 c-3 -6 -2 -15 4 -21 6 -6 12 -6 17 3 6 8 4 10 -5 4 -10
-6 -12 -4 -7 8 7 19 2 23 -9 6z"/>
<path d="M6334 4258 c-4 -7 -4 -10 1 -6 4 4 14 3 22 -4 11 -8 12 -7 7 6 -7 19
-20 21 -30 4z"/>
<path d="M6450 4258 c0 -9 5 -20 10 -23 13 -8 13 5 0 25 -8 13 -10 13 -10 -2z"/>
<path d="M6337 4223 c-11 -11 -8 -20 7 -20 8 0 12 6 9 14 -6 15 -7 15 -16 6z"/>
<path d="M6303 4201 c0 -11 5 -18 9 -15 4 3 5 11 1 19 -7 21 -12 19 -10 -4z"/>
<path d="M6403 4204 c0 -16 13 -19 21 -5 3 5 0 11 -7 14 -8 3 -14 -1 -14 -9z"/>
<path d="M6375 4200 c-3 -5 -1 -10 4 -10 6 0 11 5 11 10 0 6 -2 10 -4 10 -3 0
-8 -4 -11 -10z"/>
<path d="M6287 4157 c-10 -25 -9 -27 7 -27 8 0 18 5 22 12 4 6 3 8 -4 4 -6 -3
-12 2 -14 11 -3 17 -4 17 -11 0z"/>
<path d="M6276 4068 c16 -33 19 -35 30 -20 14 19 8 35 -9 29 -7 -2 -18 3 -25
12 -7 9 -5 -1 4 -21z"/>
<path d="M6407 4153 c-4 -6 3 -19 16 -29 12 -11 17 -12 11 -4 -6 8 -13 22 -16
30 -3 9 -7 10 -11 3z"/>
<path d="M5010 2239 c0 -5 4 -7 10 -4 5 3 20 1 32 -5 22 -11 22 -10 4 4 -23
18 -46 21 -46 5z"/>
<path d="M4949 2238 c-1 -2 -3 -13 -4 -25 -2 -16 2 -20 13 -15 11 4 12 7 4 10
-7 2 -12 8 -12 13 0 6 4 8 9 4 5 -3 12 -1 16 5 3 5 -1 10 -9 10 -9 0 -17 -1
-17 -2z"/>
<path d="M4910 2220 c0 -5 5 -10 11 -10 5 0 7 5 4 10 -3 6 -8 10 -11 10 -2 0
-4 -4 -4 -10z"/>
<path d="M5008 2214 c-4 -3 0 -17 7 -31 7 -14 11 -33 8 -42 -3 -12 -2 -11 7 2
11 18 12 18 26 0 15 -20 19 -7 5 16 -5 8 -14 10 -21 6 -8 -5 -11 -3 -8 6 3 8
12 13 20 11 21 -3 18 26 -3 31 -12 3 -16 0 -12 -10 4 -11 2 -14 -8 -11 -8 3
-13 11 -11 17 2 12 -2 14 -10 5z"/>
<path d="M4982 2190 c2 -8 -2 -14 -8 -13 -8 2 -10 -6 -6 -20 5 -19 7 -19 10
-4 3 15 6 16 20 5 16 -12 16 -11 2 6 -8 11 -13 21 -12 23 2 3 1 8 -3 11 -4 4
-5 0 -3 -8z"/>
<path d="M4865 2170 c3 -5 8 -10 11 -10 2 0 4 5 4 10 0 6 -5 10 -11 10 -5 0
-7 -4 -4 -10z"/>
<path d="M4916 2172 c-3 -5 1 -9 9 -9 8 0 15 4 15 9 0 4 -4 8 -9 8 -6 0 -12
-4 -15 -8z"/>
<path d="M4806 2125 c-3 -9 -2 -14 3 -10 5 3 11 -1 14 -7 2 -7 7 -11 10 -8 3
3 0 13 -8 23 -11 16 -13 16 -19 2z"/>
<path d="M4963 2123 c18 -21 18 -21 -4 -28 -14 -5 -25 -3 -27 4 -7 22 -22 11
-18 -13 3 -16 -1 -27 -11 -30 -9 -4 -13 -9 -10 -13 4 -3 13 0 22 7 13 11 14
10 9 -4 -4 -11 1 -19 17 -25 19 -6 27 -4 38 11 9 14 16 17 24 9 6 -6 16 -11
21 -11 6 0 0 7 -13 16 -19 14 -25 14 -32 3 -4 -7 -11 -11 -14 -7 -3 3 0 12 8
19 25 26 25 44 -2 63 l-26 20 18 -21z m6 -46 c-9 -7 -15 -20 -13 -30 1 -10 -3
-16 -9 -14 -7 3 -11 10 -9 17 2 7 -3 17 -10 23 -10 6 -8 7 4 3 10 -3 20 -1 23
4 4 6 12 10 18 10 7 -1 6 -6 -4 -13z"/>
<path d="M4787 2076 c21 -28 27 -28 16 0 -5 10 -14 20 -21 22 -9 2 -7 -5 5
-22z"/>
<path d="M4880 1995 c0 -8 7 -15 16 -15 14 0 14 3 4 15 -7 8 -14 15 -16 15 -2
0 -4 -7 -4 -15z"/>
<path d="M4720 1931 c0 -5 7 -14 15 -21 10 -9 15 -9 15 -1 0 6 -5 11 -11 11
-5 0 -7 5 -4 10 3 6 1 10 -4 10 -6 0 -11 -4 -11 -9z"/>
<path d="M5112 6605 c0 -16 2 -22 5 -12 2 9 2 23 0 30 -3 6 -5 -1 -5 -18z"/>
<path d="M6925 6620 c-3 -6 1 -7 9 -4 18 7 21 14 7 14 -6 0 -13 -4 -16 -10z"/>
<path d="M5082 6595 c0 -16 2 -22 5 -12 2 9 2 23 0 30 -3 6 -5 -1 -5 -18z"/>
<path d="M6935 6590 c-3 -5 -1 -10 4 -10 6 0 11 5 11 10 0 6 -2 10 -4 10 -3 0
-8 -4 -11 -10z"/>
<path d="M6895 6571 c-3 -5 -1 -12 5 -16 5 -3 10 1 10 9 0 18 -6 21 -15 7z"/>
<path d="M5121 6534 c0 -11 3 -14 6 -6 3 7 2 16 -1 19 -3 4 -6 -2 -5 -13z"/>
<path d="M6927 6543 c-14 -4 -16 -8 -6 -19 16 -19 4 -18 -16 2 -15 16 -16 16
-13 -2 2 -10 8 -22 13 -26 6 -4 0 -8 -13 -8 -13 0 -21 -4 -18 -9 7 -11 46 -2
46 11 0 5 3 7 8 5 4 -3 12 0 17 7 11 13 16 47 6 45 -3 -1 -14 -3 -24 -6z"/>
<path d="M5091 6514 c0 -11 3 -14 6 -6 3 7 2 16 -1 19 -3 4 -6 -2 -5 -13z"/>
<path d="M6845 6500 c1 -11 7 -26 13 -32 10 -10 12 -8 9 10 -2 12 -8 27 -13
32 -7 7 -10 4 -9 -10z"/>
<path d="M6159 6183 c-13 -16 -12 -17 4 -4 16 13 21 21 13 21 -2 0 -10 -8 -17
-17z"/>
<path d="M6184 6158 l-19 -23 23 19 c21 18 27 26 19 26 -2 0 -12 -10 -23 -22z"/>
<path d="M6109 6143 c-13 -16 -12 -17 4 -4 9 7 17 15 17 17 0 8 -8 3 -21 -13z"/>
<path d="M6139 6123 c-13 -16 -12 -17 4 -4 16 13 21 21 13 21 -2 0 -10 -8 -17
-17z"/>
<path d="M6089 6083 c-13 -16 -12 -17 4 -4 9 7 17 15 17 17 0 8 -8 3 -21 -13z"/>
<path d="M3066 5855 c-9 -26 -7 -32 5 -12 6 10 9 21 6 23 -2 3 -7 -2 -11 -11z"/>
<path d="M3040 5800 c-6 -11 -8 -20 -6 -20 3 0 10 9 16 20 6 11 8 20 6 20 -3
0 -10 -9 -16 -20z"/>
<path d="M7034 5709 c-48 -14 -124 -70 -147 -109 -18 -31 -15 -29 22 13 56 62
108 88 195 97 70 7 70 7 16 8 -30 0 -69 -4 -86 -9z"/>
<path d="M6841 5494 c0 -11 3 -14 6 -6 3 7 2 16 -1 19 -3 4 -6 -2 -5 -13z"/>
<path d="M6583 5483 c9 -2 23 -2 30 0 6 3 -1 5 -18 5 -16 0 -22 -2 -12 -5z"/>
<path d="M6668 5473 c12 -2 30 -2 40 0 9 3 -1 5 -23 4 -22 0 -30 -2 -17 -4z"/>
<path d="M6763 5463 c15 -2 37 -2 50 0 12 2 0 4 -28 4 -27 0 -38 -2 -22 -4z"/>
<path d="M6553 5453 c9 -2 25 -2 35 0 9 3 1 5 -18 5 -19 0 -27 -2 -17 -5z"/>
<path d="M7365 5450 c-3 -5 -1 -10 4 -10 6 0 11 5 11 10 0 6 -2 10 -4 10 -3 0
-8 -4 -11 -10z"/>
<path d="M6648 5443 c12 -2 32 -2 45 0 12 2 2 4 -23 4 -25 0 -35 -2 -22 -4z"/>
<path d="M6720 5438 c0 -5 26 -7 58 -7 61 1 55 6 -15 11 -24 2 -43 0 -43 -4z"/>
<path d="M6831 5404 c0 -11 3 -14 6 -6 3 7 2 16 -1 19 -3 4 -6 -2 -5 -13z"/>
<path d="M7312 5404 c10 -10 20 -16 22 -13 3 3 -5 11 -17 18 -21 13 -21 12 -5
-5z"/>
<path d="M3989 5383 l-24 -28 28 24 c25 23 32 31 24 31 -2 0 -14 -12 -28 -27z"/>
<path d="M7363 5377 c-2 -30 -2 -31 8 -8 5 14 6 28 1 33 -4 4 -9 -7 -9 -25z"/>
<path d="M7296 5356 c3 -8 0 -17 -5 -21 -14 -8 -5 -25 12 -25 18 0 19 47 2 53
-9 4 -12 1 -9 -7z"/>
<path d="M7260 5344 c0 -8 5 -12 10 -9 6 4 8 11 5 16 -9 14 -15 11 -15 -7z"/>
<path d="M7195 5340 c-3 -5 -1 -10 4 -10 6 0 11 5 11 10 0 6 -2 10 -4 10 -3 0
-8 -4 -11 -10z"/>
<path d="M7210 5312 c0 -6 -8 -13 -17 -15 -16 -4 -16 -5 -1 -6 18 -1 34 16 24
26 -3 4 -6 1 -6 -5z"/>
<path d="M7096 5187 c3 -10 9 -15 12 -12 3 3 0 11 -7 18 -10 9 -11 8 -5 -6z"/>
<path d="M7058 5183 c7 -3 16 -2 19 1 4 3 -2 6 -13 5 -11 0 -14 -3 -6 -6z"/>
<path d="M1736 4761 l-40 -46 44 42 c24 23 42 44 40 46 -3 2 -23 -17 -44 -42z"/>
<path d="M1664 4704 c-18 -14 -18 -15 4 -4 12 6 22 13 22 15 0 8 -5 6 -26 -11z"/>
<path d="M1610 4680 c-8 -5 -10 -10 -5 -10 6 0 17 5 25 10 8 5 11 10 5 10 -5
0 -17 -5 -25 -10z"/>
<path d="M1350 4670 c8 -5 22 -9 30 -9 10 0 8 3 -5 9 -27 12 -43 12 -25 0z"/>
<path d="M1437 4653 c18 -2 50 -2 70 0 21 2 7 4 -32 4 -38 0 -55 -2 -38 -4z"/>
<path d="M4232 4300 c0 -14 2 -19 5 -12 2 6 2 18 0 25 -3 6 -5 1 -5 -13z"/>
<path d="M3411 4284 c0 -11 3 -14 6 -6 3 7 2 16 -1 19 -3 4 -6 -2 -5 -13z"/>
<path d="M3386 4175 c-9 -26 -7 -32 5 -12 6 10 9 21 6 23 -2 3 -7 -2 -11 -11z"/>
<path d="M3281 4037 c-6 -8 -29 -22 -51 -32 -22 -10 -38 -20 -36 -22 6 -7 81
34 95 51 8 9 11 16 8 16 -2 0 -10 -6 -16 -13z"/>
<path d="M3158 3973 c7 -3 16 -2 19 1 4 3 -2 6 -13 5 -11 0 -14 -3 -6 -6z"/>
<path d="M3063 3963 c15 -2 37 -2 50 0 12 2 0 4 -28 4 -27 0 -38 -2 -22 -4z"/>
<path d="M5211 3610 c-7 -4 -21 -6 -30 -3 -10 2 -24 -4 -31 -14 -12 -15 -12
-16 0 -5 17 15 44 16 34 1 -4 -8 0 -8 15 0 11 7 21 9 21 5 0 -3 6 -1 14 5 12
10 19 8 37 -10 16 -16 21 -18 16 -6 -3 9 -2 17 3 17 6 0 10 -4 10 -10 0 -12
27 -13 34 -2 3 5 0 9 -7 10 -14 2 -54 9 -83 16 -11 2 -26 1 -33 -4z"/>
<path d="M5173 3559 c9 -5 17 -17 17 -26 0 -9 3 -13 7 -9 10 10 13 37 3 31 -5
-3 -11 -1 -15 5 -3 5 -12 10 -18 10 -7 0 -4 -5 6 -11z"/>
<path d="M5255 3540 c3 -5 8 -10 11 -10 2 0 4 5 4 10 0 6 -5 10 -11 10 -5 0
-7 -4 -4 -10z"/>
<path d="M5228 3533 c6 -2 9 -10 6 -15 -4 -7 -2 -8 5 -4 13 9 5 26 -12 25 -9
0 -8 -2 1 -6z"/>
<path d="M5110 3508 c0 -4 4 -8 9 -8 6 0 12 4 15 8 3 5 -1 9 -9 9 -8 0 -15 -4
-15 -9z"/>
<path d="M5192 3498 c2 -7 -3 -12 -9 -10 -15 2 -16 -7 -4 -27 7 -11 10 -9 16
9 5 16 10 19 15 10 4 -7 10 -8 13 -3 3 5 -3 14 -14 21 -15 10 -19 10 -17 0z"/>
<path d="M5218 3463 c-10 -3 -15 -10 -12 -18 4 -10 -1 -13 -19 -9 -14 2 -28 0
-31 -5 -12 -18 54 -5 70 15 13 16 15 16 10 2 -3 -10 -1 -18 4 -18 12 0 13 27
3 33 -5 2 -16 2 -25 0z"/>
<path d="M5100 3446 c14 -18 13 -19 -3 -13 -11 4 -16 3 -12 -4 4 -6 13 -8 20
-5 7 2 16 -2 19 -10 3 -8 11 -14 18 -14 11 0 11 2 0 8 -7 5 -11 15 -9 23 2 8
2 10 -1 6 -2 -5 -14 0 -25 10 -21 18 -21 18 -7 -1z"/>
<path d="M5097 3399 c7 -7 15 -10 18 -7 3 3 -2 9 -12 12 -14 6 -15 5 -6 -5z"/>
<path d="M2461 3274 c0 -11 3 -14 6 -6 3 7 2 16 -1 19 -3 4 -6 -2 -5 -13z"/>
<path d="M2416 3072 c-22 -27 -24 -32 -7 -17 20 17 47 55 39 55 -2 0 -16 -17
-32 -38z"/>
<path d="M3550 3084 c-183 -79 -185 -358 -3 -441 151 -69 316 40 315 210 0
173 -165 295 -312 231z m203 -31 c58 -40 97 -118 97 -192 -1 -31 -8 -69 -16
-86 -8 -16 -12 -21 -8 -10 14 51 16 75 5 75 -7 0 -9 -5 -5 -11 4 -7 1 -10 -7
-7 -8 3 -13 13 -12 23 1 12 -2 14 -10 6 -7 -7 -6 -16 7 -30 10 -11 15 -24 12
-29 -8 -13 -51 -7 -48 7 1 7 -2 10 -8 6 -8 -5 -8 -11 1 -21 6 -7 15 -11 20 -8
5 3 9 2 9 -3 0 -4 -12 -13 -26 -20 -20 -9 -23 -9 -15 0 7 9 2 19 -16 35 -16
14 -23 17 -19 7 3 -8 1 -15 -5 -15 -6 0 -7 -5 -3 -12 6 -9 9 -9 12 0 2 7 8 10
13 6 5 -3 2 -13 -8 -22 -12 -12 -18 -13 -21 -4 -2 7 -8 9 -14 6 -5 -3 -12 3
-15 15 -3 12 -10 21 -15 21 -5 0 -7 -4 -4 -9 4 -5 3 -17 0 -26 -6 -14 -8 -14
-27 2 -20 18 -20 18 -2 -9 9 -16 13 -28 7 -28 -6 0 -13 6 -16 13 -3 8 -9 7
-20 -7 -8 -10 -19 -15 -25 -11 -14 8 -14 -1 0 -28 7 -15 3 -13 -15 8 -16 19
-24 23 -19 11 5 -15 2 -17 -18 -12 -20 6 -21 5 -6 -4 9 -6 21 -9 26 -6 5 3 11
-3 14 -15 5 -20 5 -20 -21 -3 -49 30 -70 55 -92 107 -40 91 -11 215 63 271 51
39 77 46 146 42 50 -3 72 -10 104 -33z m-68 -321 c-3 -3 -11 0 -18 7 -9 10 -8
11 6 5 10 -3 15 -9 12 -12z m105 -37 c-7 -9 -15 -13 -17 -11 -7 7 7 26 19 26
6 0 6 -6 -2 -15z m-60 -40 c-14 -8 -32 -14 -40 -14 -8 0 -1 6 15 14 40 18 57
18 25 0z m-90 -15 c12 -8 11 -10 -7 -10 -13 0 -23 5 -23 10 0 13 11 13 30 0z"/>
<path d="M3780 2806 c0 -2 7 -7 16 -10 8 -3 12 -2 9 4 -6 10 -25 14 -25 6z"/>
<path d="M2350 3025 c-14 -8 -20 -14 -14 -15 5 0 19 7 30 15 24 18 16 19 -16
0z"/>
<path d="M2157 3019 c7 -7 15 -10 18 -7 3 3 -2 9 -12 12 -14 6 -15 5 -6 -5z"/>
<path d="M6335 2681 c-186 -86 -137 -367 68 -388 112 -12 212 69 224 181 18
158 -147 274 -292 207z m158 -5 c21 -8 47 -22 59 -33 26 -23 52 -73 38 -73 -5
0 -10 7 -10 16 0 8 -4 13 -9 9 -5 -3 -17 2 -26 11 -15 16 -16 16 -13 -2 2 -10
8 -22 13 -26 6 -5 6 -8 -2 -8 -7 0 -16 8 -22 17 -5 10 -13 14 -18 10 -4 -5 3
-18 17 -30 15 -12 18 -18 8 -14 -10 3 -20 2 -23 -3 -4 -6 0 -10 7 -10 8 0 6
-5 -5 -11 -10 -6 -21 -8 -24 -5 -4 3 -1 6 4 6 20 0 7 33 -17 42 -20 7 -21 6
-10 -7 7 -9 10 -18 7 -22 -4 -3 -1 -15 5 -27 10 -19 10 -20 -5 -8 -9 8 -22 10
-28 6 -8 -5 -9 -3 -4 7 8 12 6 12 -8 1 -9 -8 -21 -11 -28 -7 -8 6 -7 10 2 16
11 7 10 9 -4 9 -14 0 -17 -5 -12 -20 7 -23 -16 -36 -72 -39 -6 -1 -14 -10 -18
-20 -3 -11 -12 -18 -20 -15 -7 3 -16 0 -21 -7 -4 -7 -3 -10 2 -7 5 4 10 -5 10
-18 2 -33 -3 -30 -21 12 -20 48 -19 100 4 149 44 96 143 137 244 101z m-69
-192 c3 -8 2 -12 -4 -9 -6 3 -10 10 -10 16 0 14 7 11 14 -7z m-61 -11 c-7 -3
-13 -12 -14 -21 0 -11 -2 -12 -6 -4 -2 6 -9 10 -14 6 -5 -3 -9 -1 -9 4 0 13 7
18 32 19 13 0 17 -1 11 -4z m-49 -29 c3 -8 2 -12 -4 -9 -6 3 -10 10 -10 16 0
14 7 11 14 -7z m-20 -80 c5 -14 4 -15 -9 -4 -17 14 -19 20 -6 20 5 0 12 -7 15
-16z m93 -50 c-3 -3 -12 -4 -19 -1 -8 3 -5 6 6 6 11 1 17 -2 13 -5z"/>
<path d="M6550 2621 c0 -6 4 -13 10 -16 6 -3 7 1 4 9 -7 18 -14 21 -14 7z"/>
<path d="M6404 2578 l-19 -23 23 19 c12 11 22 21 22 23 0 8 -8 2 -26 -19z"/>
<path d="M6440 2550 c0 -5 5 -10 11 -10 5 0 7 5 4 10 -3 6 -8 10 -11 10 -2 0
-4 -4 -4 -10z"/>
<path d="M6351 2514 c0 -11 3 -14 6 -6 3 7 2 16 -1 19 -3 4 -6 -2 -5 -13z"/>
<path d="M6310 2500 c-9 -6 -10 -10 -3 -10 6 0 15 5 18 10 8 12 4 12 -15 0z"/>
<path d="M6246 2484 c-3 -9 -4 -19 -1 -22 3 -3 5 1 5 9 0 11 2 11 10 -1 5 -8
10 -10 10 -5 0 6 -4 16 -9 23 -6 11 -10 10 -15 -4z"/>
</g>
</svg>
